<?xml version="1.0" encoding="utf-8" standalone="no"?>
<!DOCTYPE svg PUBLIC "-//W3C//DTD SVG 1.1//EN"
  "http://www.w3.org/Graphics/SVG/1.1/DTD/svg11.dtd">
<svg xmlns:xlink="http://www.w3.org/1999/xlink" width="392.489688pt" height="372.908281pt" viewBox="0 0 392.489688 372.908281" xmlns="http://www.w3.org/2000/svg" version="1.1">
 <metadata>
  <rdf:RDF xmlns:dc="http://purl.org/dc/elements/1.1/" xmlns:cc="http://creativecommons.org/ns#" xmlns:rdf="http://www.w3.org/1999/02/22-rdf-syntax-ns#">
   <cc:Work>
    <dc:type rdf:resource="http://purl.org/dc/dcmitype/StillImage"/>
    <dc:date>2023-04-27T14:39:15.299995</dc:date>
    <dc:format>image/svg+xml</dc:format>
    <dc:creator>
     <cc:Agent>
      <dc:title>Matplotlib v3.7.0, https://matplotlib.org/</dc:title>
     </cc:Agent>
    </dc:creator>
   </cc:Work>
  </rdf:RDF>
 </metadata>
 <defs>
  <style type="text/css">*{stroke-linejoin: round; stroke-linecap: butt}</style>
 </defs>
 <g id="figure_1">
  <g id="patch_1">
   <path d="M 0 372.908281 
L 392.489688 372.908281 
L 392.489688 0 
L 0 0 
z
" style="fill: #ffffff"/>
  </g>
  <g id="axes_1">
   <g id="patch_2">
    <path d="M 48.195938 345.158906 
L 380.835938 345.158906 
L 380.835938 12.518906 
L 48.195938 12.518906 
z
" style="fill: #ffffff"/>
   </g>
   <g id="matplotlib.axis_1">
    <g id="xtick_1">
     <g id="line2d_1">
      <defs>
       <path id="mc7ad3079d0" d="M 0 0 
L 0 3.5 
" style="stroke: #000000; stroke-width: 0.8"/>
      </defs>
      <g>
       <use xlink:href="#mc7ad3079d0" x="48.195938" y="345.158906" style="stroke: #000000; stroke-width: 0.8"/>
      </g>
     </g>
     <g id="text_1">
      <!-- −2 -->
      <g transform="translate(37.876406 362.796719) scale(0.14 -0.14)">
       <defs>
        <path id="DejaVuSans-2212" d="M 678 2272 
L 4684 2272 
L 4684 1741 
L 678 1741 
L 678 2272 
z
" transform="scale(0.015625)"/>
        <path id="DejaVuSans-32" d="M 1228 531 
L 3431 531 
L 3431 0 
L 469 0 
L 469 531 
Q 828 903 1448 1529 
Q 2069 2156 2228 2338 
Q 2531 2678 2651 2914 
Q 2772 3150 2772 3378 
Q 2772 3750 2511 3984 
Q 2250 4219 1831 4219 
Q 1534 4219 1204 4116 
Q 875 4013 500 3803 
L 500 4441 
Q 881 4594 1212 4672 
Q 1544 4750 1819 4750 
Q 2544 4750 2975 4387 
Q 3406 4025 3406 3419 
Q 3406 3131 3298 2873 
Q 3191 2616 2906 2266 
Q 2828 2175 2409 1742 
Q 1991 1309 1228 531 
z
" transform="scale(0.015625)"/>
       </defs>
       <use xlink:href="#DejaVuSans-2212"/>
       <use xlink:href="#DejaVuSans-32" x="83.789062"/>
      </g>
     </g>
    </g>
    <g id="xtick_2">
     <g id="line2d_2">
      <g>
       <use xlink:href="#mc7ad3079d0" x="131.355938" y="345.158906" style="stroke: #000000; stroke-width: 0.8"/>
      </g>
     </g>
     <g id="text_2">
      <!-- −1 -->
      <g transform="translate(121.036406 362.796719) scale(0.14 -0.14)">
       <defs>
        <path id="DejaVuSans-31" d="M 794 531 
L 1825 531 
L 1825 4091 
L 703 3866 
L 703 4441 
L 1819 4666 
L 2450 4666 
L 2450 531 
L 3481 531 
L 3481 0 
L 794 0 
L 794 531 
z
" transform="scale(0.015625)"/>
       </defs>
       <use xlink:href="#DejaVuSans-2212"/>
       <use xlink:href="#DejaVuSans-31" x="83.789062"/>
      </g>
     </g>
    </g>
    <g id="xtick_3">
     <g id="line2d_3">
      <g>
       <use xlink:href="#mc7ad3079d0" x="214.515938" y="345.158906" style="stroke: #000000; stroke-width: 0.8"/>
      </g>
     </g>
     <g id="text_3">
      <!-- 0 -->
      <g transform="translate(210.062188 362.796719) scale(0.14 -0.14)">
       <defs>
        <path id="DejaVuSans-30" d="M 2034 4250 
Q 1547 4250 1301 3770 
Q 1056 3291 1056 2328 
Q 1056 1369 1301 889 
Q 1547 409 2034 409 
Q 2525 409 2770 889 
Q 3016 1369 3016 2328 
Q 3016 3291 2770 3770 
Q 2525 4250 2034 4250 
z
M 2034 4750 
Q 2819 4750 3233 4129 
Q 3647 3509 3647 2328 
Q 3647 1150 3233 529 
Q 2819 -91 2034 -91 
Q 1250 -91 836 529 
Q 422 1150 422 2328 
Q 422 3509 836 4129 
Q 1250 4750 2034 4750 
z
" transform="scale(0.015625)"/>
       </defs>
       <use xlink:href="#DejaVuSans-30"/>
      </g>
     </g>
    </g>
    <g id="xtick_4">
     <g id="line2d_4">
      <g>
       <use xlink:href="#mc7ad3079d0" x="297.675938" y="345.158906" style="stroke: #000000; stroke-width: 0.8"/>
      </g>
     </g>
     <g id="text_4">
      <!-- 1 -->
      <g transform="translate(293.222188 362.796719) scale(0.14 -0.14)">
       <use xlink:href="#DejaVuSans-31"/>
      </g>
     </g>
    </g>
    <g id="xtick_5">
     <g id="line2d_5">
      <g>
       <use xlink:href="#mc7ad3079d0" x="380.835938" y="345.158906" style="stroke: #000000; stroke-width: 0.8"/>
      </g>
     </g>
     <g id="text_5">
      <!-- 2 -->
      <g transform="translate(376.382188 362.796719) scale(0.14 -0.14)">
       <use xlink:href="#DejaVuSans-32"/>
      </g>
     </g>
    </g>
   </g>
   <g id="matplotlib.axis_2">
    <g id="ytick_1">
     <g id="line2d_6">
      <defs>
       <path id="mf5b16efcf2" d="M 0 0 
L -3.5 0 
" style="stroke: #000000; stroke-width: 0.8"/>
      </defs>
      <g>
       <use xlink:href="#mf5b16efcf2" x="48.195938" y="345.158906" style="stroke: #000000; stroke-width: 0.8"/>
      </g>
     </g>
     <g id="text_6">
      <!-- −2.0 -->
      <g transform="translate(7.2 350.477813) scale(0.14 -0.14)">
       <defs>
        <path id="DejaVuSans-2e" d="M 684 794 
L 1344 794 
L 1344 0 
L 684 0 
L 684 794 
z
" transform="scale(0.015625)"/>
       </defs>
       <use xlink:href="#DejaVuSans-2212"/>
       <use xlink:href="#DejaVuSans-32" x="83.789062"/>
       <use xlink:href="#DejaVuSans-2e" x="147.412109"/>
       <use xlink:href="#DejaVuSans-30" x="179.199219"/>
      </g>
     </g>
    </g>
    <g id="ytick_2">
     <g id="line2d_7">
      <g>
       <use xlink:href="#mf5b16efcf2" x="48.195938" y="303.578906" style="stroke: #000000; stroke-width: 0.8"/>
      </g>
     </g>
     <g id="text_7">
      <!-- −1.5 -->
      <g transform="translate(7.2 308.897813) scale(0.14 -0.14)">
       <defs>
        <path id="DejaVuSans-35" d="M 691 4666 
L 3169 4666 
L 3169 4134 
L 1269 4134 
L 1269 2991 
Q 1406 3038 1543 3061 
Q 1681 3084 1819 3084 
Q 2600 3084 3056 2656 
Q 3513 2228 3513 1497 
Q 3513 744 3044 326 
Q 2575 -91 1722 -91 
Q 1428 -91 1123 -41 
Q 819 9 494 109 
L 494 744 
Q 775 591 1075 516 
Q 1375 441 1709 441 
Q 2250 441 2565 725 
Q 2881 1009 2881 1497 
Q 2881 1984 2565 2268 
Q 2250 2553 1709 2553 
Q 1456 2553 1204 2497 
Q 953 2441 691 2322 
L 691 4666 
z
" transform="scale(0.015625)"/>
       </defs>
       <use xlink:href="#DejaVuSans-2212"/>
       <use xlink:href="#DejaVuSans-31" x="83.789062"/>
       <use xlink:href="#DejaVuSans-2e" x="147.412109"/>
       <use xlink:href="#DejaVuSans-35" x="179.199219"/>
      </g>
     </g>
    </g>
    <g id="ytick_3">
     <g id="line2d_8">
      <g>
       <use xlink:href="#mf5b16efcf2" x="48.195938" y="261.998906" style="stroke: #000000; stroke-width: 0.8"/>
      </g>
     </g>
     <g id="text_8">
      <!-- −1.0 -->
      <g transform="translate(7.2 267.317813) scale(0.14 -0.14)">
       <use xlink:href="#DejaVuSans-2212"/>
       <use xlink:href="#DejaVuSans-31" x="83.789062"/>
       <use xlink:href="#DejaVuSans-2e" x="147.412109"/>
       <use xlink:href="#DejaVuSans-30" x="179.199219"/>
      </g>
     </g>
    </g>
    <g id="ytick_4">
     <g id="line2d_9">
      <g>
       <use xlink:href="#mf5b16efcf2" x="48.195938" y="220.418906" style="stroke: #000000; stroke-width: 0.8"/>
      </g>
     </g>
     <g id="text_9">
      <!-- −0.5 -->
      <g transform="translate(7.2 225.737813) scale(0.14 -0.14)">
       <use xlink:href="#DejaVuSans-2212"/>
       <use xlink:href="#DejaVuSans-30" x="83.789062"/>
       <use xlink:href="#DejaVuSans-2e" x="147.412109"/>
       <use xlink:href="#DejaVuSans-35" x="179.199219"/>
      </g>
     </g>
    </g>
    <g id="ytick_5">
     <g id="line2d_10">
      <g>
       <use xlink:href="#mf5b16efcf2" x="48.195938" y="178.838906" style="stroke: #000000; stroke-width: 0.8"/>
      </g>
     </g>
     <g id="text_10">
      <!-- 0.0 -->
      <g transform="translate(18.931563 184.157813) scale(0.14 -0.14)">
       <use xlink:href="#DejaVuSans-30"/>
       <use xlink:href="#DejaVuSans-2e" x="63.623047"/>
       <use xlink:href="#DejaVuSans-30" x="95.410156"/>
      </g>
     </g>
    </g>
    <g id="ytick_6">
     <g id="line2d_11">
      <g>
       <use xlink:href="#mf5b16efcf2" x="48.195938" y="137.258906" style="stroke: #000000; stroke-width: 0.8"/>
      </g>
     </g>
     <g id="text_11">
      <!-- 0.5 -->
      <g transform="translate(18.931563 142.577813) scale(0.14 -0.14)">
       <use xlink:href="#DejaVuSans-30"/>
       <use xlink:href="#DejaVuSans-2e" x="63.623047"/>
       <use xlink:href="#DejaVuSans-35" x="95.410156"/>
      </g>
     </g>
    </g>
    <g id="ytick_7">
     <g id="line2d_12">
      <g>
       <use xlink:href="#mf5b16efcf2" x="48.195938" y="95.678906" style="stroke: #000000; stroke-width: 0.8"/>
      </g>
     </g>
     <g id="text_12">
      <!-- 1.0 -->
      <g transform="translate(18.931563 100.997813) scale(0.14 -0.14)">
       <use xlink:href="#DejaVuSans-31"/>
       <use xlink:href="#DejaVuSans-2e" x="63.623047"/>
       <use xlink:href="#DejaVuSans-30" x="95.410156"/>
      </g>
     </g>
    </g>
    <g id="ytick_8">
     <g id="line2d_13">
      <g>
       <use xlink:href="#mf5b16efcf2" x="48.195938" y="54.098906" style="stroke: #000000; stroke-width: 0.8"/>
      </g>
     </g>
     <g id="text_13">
      <!-- 1.5 -->
      <g transform="translate(18.931563 59.417813) scale(0.14 -0.14)">
       <use xlink:href="#DejaVuSans-31"/>
       <use xlink:href="#DejaVuSans-2e" x="63.623047"/>
       <use xlink:href="#DejaVuSans-35" x="95.410156"/>
      </g>
     </g>
    </g>
    <g id="ytick_9">
     <g id="line2d_14">
      <g>
       <use xlink:href="#mf5b16efcf2" x="48.195938" y="12.518906" style="stroke: #000000; stroke-width: 0.8"/>
      </g>
     </g>
     <g id="text_14">
      <!-- 2.0 -->
      <g transform="translate(18.931563 17.837812) scale(0.14 -0.14)">
       <use xlink:href="#DejaVuSans-32"/>
       <use xlink:href="#DejaVuSans-2e" x="63.623047"/>
       <use xlink:href="#DejaVuSans-30" x="95.410156"/>
      </g>
     </g>
    </g>
   </g>
   <g id="line2d_15">
    <defs>
     <path id="m94d4e2ce01" d="M 0 3 
C 0.795609 3 1.55874 2.683901 2.12132 2.12132 
C 2.683901 1.55874 3 0.795609 3 0 
C 3 -0.795609 2.683901 -1.55874 2.12132 -2.12132 
C 1.55874 -2.683901 0.795609 -3 0 -3 
C -0.795609 -3 -1.55874 -2.683901 -2.12132 -2.12132 
C -2.683901 -1.55874 -3 -0.795609 -3 0 
C -3 0.795609 -2.683901 1.55874 -2.12132 2.12132 
C -1.55874 2.683901 -0.795609 3 0 3 
z
" style="stroke: #000000"/>
    </defs>
    <g clip-path="url(#pda1be54798)">
     <use xlink:href="#m94d4e2ce01" x="214.515938" y="95.678906" style="stroke: #000000"/>
     <use xlink:href="#m94d4e2ce01" x="219.790271" y="95.846334" style="stroke: #000000"/>
     <use xlink:href="#m94d4e2ce01" x="225.043366" y="96.347944" style="stroke: #000000"/>
     <use xlink:href="#m94d4e2ce01" x="230.254071" y="97.181716" style="stroke: #000000"/>
     <use xlink:href="#m94d4e2ce01" x="235.401404" y="98.344292" style="stroke: #000000"/>
     <use xlink:href="#m94d4e2ce01" x="240.464639" y="99.830992" style="stroke: #000000"/>
     <use xlink:href="#m94d4e2ce01" x="245.423387" y="101.635829" style="stroke: #000000"/>
     <use xlink:href="#m94d4e2ce01" x="250.257682" y="103.751535" style="stroke: #000000"/>
     <use xlink:href="#m94d4e2ce01" x="254.948058" y="106.169592" style="stroke: #000000"/>
     <use xlink:href="#m94d4e2ce01" x="259.475628" y="108.880262" style="stroke: #000000"/>
     <use xlink:href="#m94d4e2ce01" x="263.822161" y="111.872632" style="stroke: #000000"/>
     <use xlink:href="#m94d4e2ce01" x="267.970155" y="115.13465" style="stroke: #000000"/>
     <use xlink:href="#m94d4e2ce01" x="271.902908" y="118.653184" style="stroke: #000000"/>
     <use xlink:href="#m94d4e2ce01" x="275.604584" y="122.414064" style="stroke: #000000"/>
     <use xlink:href="#m94d4e2ce01" x="279.060277" y="126.402146" style="stroke: #000000"/>
     <use xlink:href="#m94d4e2ce01" x="282.256074" y="130.601374" style="stroke: #000000"/>
     <use xlink:href="#m94d4e2ce01" x="285.179104" y="134.994836" style="stroke: #000000"/>
     <use xlink:href="#m94d4e2ce01" x="287.817599" y="139.564844" style="stroke: #000000"/>
     <use xlink:href="#m94d4e2ce01" x="290.160934" y="144.292994" style="stroke: #000000"/>
     <use xlink:href="#m94d4e2ce01" x="292.199674" y="149.160248" style="stroke: #000000"/>
     <use xlink:href="#m94d4e2ce01" x="293.925608" y="154.147008" style="stroke: #000000"/>
     <use xlink:href="#m94d4e2ce01" x="295.331788" y="159.233193" style="stroke: #000000"/>
     <use xlink:href="#m94d4e2ce01" x="296.41255" y="164.398324" style="stroke: #000000"/>
     <use xlink:href="#m94d4e2ce01" x="297.163544" y="169.621602" style="stroke: #000000"/>
     <use xlink:href="#m94d4e2ce01" x="297.581745" y="174.881994" style="stroke: #000000"/>
     <use xlink:href="#m94d4e2ce01" x="297.66547" y="180.15832" style="stroke: #000000"/>
     <use xlink:href="#m94d4e2ce01" x="297.414381" y="185.429333" style="stroke: #000000"/>
     <use xlink:href="#m94d4e2ce01" x="296.829489" y="190.673808" style="stroke: #000000"/>
     <use xlink:href="#m94d4e2ce01" x="295.913149" y="195.870629" style="stroke: #000000"/>
     <use xlink:href="#m94d4e2ce01" x="294.669051" y="200.998869" style="stroke: #000000"/>
     <use xlink:href="#m94d4e2ce01" x="293.102206" y="206.037878" style="stroke: #000000"/>
     <use xlink:href="#m94d4e2ce01" x="291.218921" y="210.967367" style="stroke: #000000"/>
     <use xlink:href="#m94d4e2ce01" x="289.02678" y="215.767486" style="stroke: #000000"/>
     <use xlink:href="#m94d4e2ce01" x="286.53461" y="220.418906" style="stroke: #000000"/>
     <use xlink:href="#m94d4e2ce01" x="283.752447" y="224.902899" style="stroke: #000000"/>
     <use xlink:href="#m94d4e2ce01" x="280.691492" y="229.201408" style="stroke: #000000"/>
     <use xlink:href="#m94d4e2ce01" x="277.364072" y="233.297125" style="stroke: #000000"/>
     <use xlink:href="#m94d4e2ce01" x="273.783585" y="237.173558" style="stroke: #000000"/>
     <use xlink:href="#m94d4e2ce01" x="269.964448" y="240.815098" style="stroke: #000000"/>
     <use xlink:href="#m94d4e2ce01" x="265.922039" y="244.207082" style="stroke: #000000"/>
     <use xlink:href="#m94d4e2ce01" x="261.672636" y="247.335851" style="stroke: #000000"/>
     <use xlink:href="#m94d4e2ce01" x="257.233349" y="250.188807" style="stroke: #000000"/>
     <use xlink:href="#m94d4e2ce01" x="252.622055" y="252.754462" style="stroke: #000000"/>
     <use xlink:href="#m94d4e2ce01" x="247.857321" y="255.022486" style="stroke: #000000"/>
     <use xlink:href="#m94d4e2ce01" x="242.958333" y="256.983745" style="stroke: #000000"/>
     <use xlink:href="#m94d4e2ce01" x="237.944817" y="258.630342" style="stroke: #000000"/>
     <use xlink:href="#m94d4e2ce01" x="232.836961" y="259.955647" style="stroke: #000000"/>
     <use xlink:href="#m94d4e2ce01" x="227.655334" y="260.954324" style="stroke: #000000"/>
     <use xlink:href="#m94d4e2ce01" x="222.420798" y="261.622351" style="stroke: #000000"/>
     <use xlink:href="#m94d4e2ce01" x="217.154432" y="261.957039" style="stroke: #000000"/>
     <use xlink:href="#m94d4e2ce01" x="211.877443" y="261.957039" style="stroke: #000000"/>
     <use xlink:href="#m94d4e2ce01" x="206.611077" y="261.622351" style="stroke: #000000"/>
     <use xlink:href="#m94d4e2ce01" x="201.376541" y="260.954324" style="stroke: #000000"/>
     <use xlink:href="#m94d4e2ce01" x="196.194914" y="259.955647" style="stroke: #000000"/>
     <use xlink:href="#m94d4e2ce01" x="191.087058" y="258.630342" style="stroke: #000000"/>
     <use xlink:href="#m94d4e2ce01" x="186.073542" y="256.983745" style="stroke: #000000"/>
     <use xlink:href="#m94d4e2ce01" x="181.174554" y="255.022486" style="stroke: #000000"/>
     <use xlink:href="#m94d4e2ce01" x="176.40982" y="252.754462" style="stroke: #000000"/>
     <use xlink:href="#m94d4e2ce01" x="171.798526" y="250.188807" style="stroke: #000000"/>
     <use xlink:href="#m94d4e2ce01" x="167.359239" y="247.335851" style="stroke: #000000"/>
     <use xlink:href="#m94d4e2ce01" x="163.109836" y="244.207082" style="stroke: #000000"/>
     <use xlink:href="#m94d4e2ce01" x="159.067427" y="240.815098" style="stroke: #000000"/>
     <use xlink:href="#m94d4e2ce01" x="155.24829" y="237.173558" style="stroke: #000000"/>
     <use xlink:href="#m94d4e2ce01" x="151.667803" y="233.297125" style="stroke: #000000"/>
     <use xlink:href="#m94d4e2ce01" x="148.340383" y="229.201408" style="stroke: #000000"/>
     <use xlink:href="#m94d4e2ce01" x="145.279428" y="224.902899" style="stroke: #000000"/>
     <use xlink:href="#m94d4e2ce01" x="142.497265" y="220.418906" style="stroke: #000000"/>
     <use xlink:href="#m94d4e2ce01" x="140.005095" y="215.767486" style="stroke: #000000"/>
     <use xlink:href="#m94d4e2ce01" x="137.812954" y="210.967367" style="stroke: #000000"/>
     <use xlink:href="#m94d4e2ce01" x="135.929669" y="206.037878" style="stroke: #000000"/>
     <use xlink:href="#m94d4e2ce01" x="134.362824" y="200.998869" style="stroke: #000000"/>
     <use xlink:href="#m94d4e2ce01" x="133.118726" y="195.870629" style="stroke: #000000"/>
     <use xlink:href="#m94d4e2ce01" x="132.202386" y="190.673808" style="stroke: #000000"/>
     <use xlink:href="#m94d4e2ce01" x="131.617494" y="185.429333" style="stroke: #000000"/>
     <use xlink:href="#m94d4e2ce01" x="131.366405" y="180.15832" style="stroke: #000000"/>
     <use xlink:href="#m94d4e2ce01" x="131.45013" y="174.881994" style="stroke: #000000"/>
     <use xlink:href="#m94d4e2ce01" x="131.868331" y="169.621602" style="stroke: #000000"/>
     <use xlink:href="#m94d4e2ce01" x="132.619325" y="164.398324" style="stroke: #000000"/>
     <use xlink:href="#m94d4e2ce01" x="133.700087" y="159.233193" style="stroke: #000000"/>
     <use xlink:href="#m94d4e2ce01" x="135.106267" y="154.147008" style="stroke: #000000"/>
     <use xlink:href="#m94d4e2ce01" x="136.832201" y="149.160248" style="stroke: #000000"/>
     <use xlink:href="#m94d4e2ce01" x="138.870941" y="144.292994" style="stroke: #000000"/>
     <use xlink:href="#m94d4e2ce01" x="141.214276" y="139.564844" style="stroke: #000000"/>
     <use xlink:href="#m94d4e2ce01" x="143.852771" y="134.994836" style="stroke: #000000"/>
     <use xlink:href="#m94d4e2ce01" x="146.775801" y="130.601374" style="stroke: #000000"/>
     <use xlink:href="#m94d4e2ce01" x="149.971598" y="126.402146" style="stroke: #000000"/>
     <use xlink:href="#m94d4e2ce01" x="153.427291" y="122.414064" style="stroke: #000000"/>
     <use xlink:href="#m94d4e2ce01" x="157.128967" y="118.653184" style="stroke: #000000"/>
     <use xlink:href="#m94d4e2ce01" x="161.06172" y="115.13465" style="stroke: #000000"/>
     <use xlink:href="#m94d4e2ce01" x="165.209714" y="111.872632" style="stroke: #000000"/>
     <use xlink:href="#m94d4e2ce01" x="169.556247" y="108.880262" style="stroke: #000000"/>
     <use xlink:href="#m94d4e2ce01" x="174.083817" y="106.169592" style="stroke: #000000"/>
     <use xlink:href="#m94d4e2ce01" x="178.774193" y="103.751535" style="stroke: #000000"/>
     <use xlink:href="#m94d4e2ce01" x="183.608488" y="101.635829" style="stroke: #000000"/>
     <use xlink:href="#m94d4e2ce01" x="188.567236" y="99.830992" style="stroke: #000000"/>
     <use xlink:href="#m94d4e2ce01" x="193.630471" y="98.344292" style="stroke: #000000"/>
     <use xlink:href="#m94d4e2ce01" x="198.777804" y="97.181716" style="stroke: #000000"/>
     <use xlink:href="#m94d4e2ce01" x="203.988509" y="96.347944" style="stroke: #000000"/>
     <use xlink:href="#m94d4e2ce01" x="209.241604" y="95.846334" style="stroke: #000000"/>
     <use xlink:href="#m94d4e2ce01" x="214.515938" y="95.678906" style="stroke: #000000"/>
    </g>
   </g>
   <g id="patch_3">
    <path d="M 48.195938 345.158906 
L 48.195938 12.518906 
" style="fill: none; stroke: #000000; stroke-width: 0.8; stroke-linejoin: miter; stroke-linecap: square"/>
   </g>
   <g id="patch_4">
    <path d="M 380.835938 345.158906 
L 380.835938 12.518906 
" style="fill: none; stroke: #000000; stroke-width: 0.8; stroke-linejoin: miter; stroke-linecap: square"/>
   </g>
   <g id="patch_5">
    <path d="M 48.195938 345.158906 
L 380.835938 345.158906 
" style="fill: none; stroke: #000000; stroke-width: 0.8; stroke-linejoin: miter; stroke-linecap: square"/>
   </g>
   <g id="patch_6">
    <path d="M 48.195938 12.518906 
L 380.835938 12.518906 
" style="fill: none; stroke: #000000; stroke-width: 0.8; stroke-linejoin: miter; stroke-linecap: square"/>
   </g>
  </g>
 </g>
 <defs>
  <clipPath id="pda1be54798">
   <rect x="48.195938" y="12.518906" width="332.64" height="332.64"/>
  </clipPath>
 </defs>
</svg>
