<?xml version="1.0" encoding="utf-8" standalone="no"?>
<!DOCTYPE svg PUBLIC "-//W3C//DTD SVG 1.1//EN"
  "http://www.w3.org/Graphics/SVG/1.1/DTD/svg11.dtd">
<svg xmlns:xlink="http://www.w3.org/1999/xlink" width="307.408166pt" height="316.682876pt" viewBox="0 0 307.408166 316.682876" xmlns="http://www.w3.org/2000/svg" version="1.1">
 <metadata>
  <rdf:RDF xmlns:dc="http://purl.org/dc/elements/1.1/" xmlns:cc="http://creativecommons.org/ns#" xmlns:rdf="http://www.w3.org/1999/02/22-rdf-syntax-ns#">
   <cc:Work>
    <dc:type rdf:resource="http://purl.org/dc/dcmitype/StillImage"/>
    <dc:date>2023-06-23T14:58:28.780715</dc:date>
    <dc:format>image/svg+xml</dc:format>
    <dc:creator>
     <cc:Agent>
      <dc:title>Matplotlib v3.7.0, https://matplotlib.org/</dc:title>
     </cc:Agent>
    </dc:creator>
   </cc:Work>
  </rdf:RDF>
 </metadata>
 <defs>
  <style type="text/css">*{stroke-linejoin: round; stroke-linecap: butt}</style>
 </defs>
 <g id="figure_1">
  <g id="patch_1">
   <path d="M 0 316.682876 
L 307.408166 316.682876 
L 307.408166 0 
L 0 0 
z
" style="fill: #ffffff"/>
  </g>
  <g id="patch_2">
   <path d="M 7.2 303.165375 
L 284.4 303.165375 
L 284.4 25.965375 
L 7.2 25.965375 
z
" style="fill: #ffffff"/>
  </g>
  <g id="pane3d_1">
   <g id="patch_3">
    <path d="M 28.130512 234.816739 
L 119.671005 158.085682 
L 118.398504 47.425782 
L 22.477327 117.424689 
" style="fill: #f2f2f2; opacity: 0.5; stroke: #f2f2f2; stroke-linejoin: miter"/>
   </g>
  </g>
  <g id="pane3d_2">
   <g id="patch_4">
    <path d="M 119.671005 158.085682 
L 266.560834 200.780756 
L 271.802814 86.309303 
L 118.398504 47.425782 
" style="fill: #e6e6e6; opacity: 0.5; stroke: #e6e6e6; stroke-linejoin: miter"/>
   </g>
  </g>
  <g id="pane3d_3">
   <g id="patch_5">
    <path d="M 28.130512 234.816739 
L 183.840905 285.671753 
L 266.560834 200.780756 
L 119.671005 158.085682 
" style="fill: #ececec; opacity: 0.5; stroke: #ececec; stroke-linejoin: miter"/>
   </g>
  </g>
  <g id="axis3d_1">
   <g id="line2d_1">
    <path d="M 28.130512 234.816739 
L 183.840905 285.671753 
" style="fill: none; stroke: #000000; stroke-width: 0.8; stroke-linecap: square"/>
   </g>
   <g id="text_1">
    <!-- x -->
    <g transform="translate(83.504041 298.697343) scale(0.14 -0.14)">
     <defs>
      <path id="DejaVuSans-78" d="M 3513 3500 
L 2247 1797 
L 3578 0 
L 2900 0 
L 1881 1375 
L 863 0 
L 184 0 
L 1544 1831 
L 300 3500 
L 978 3500 
L 1906 2253 
L 2834 3500 
L 3513 3500 
z
" transform="scale(0.015625)"/>
     </defs>
     <use xlink:href="#DejaVuSans-78"/>
    </g>
   </g>
   <g id="Line3DCollection_1">
    <path d="M 62.097839 245.910468 
L 151.824925 167.431557 
L 151.923094 55.923288 
" style="fill: none; stroke: #b0b0b0; stroke-width: 0.8"/>
    <path d="M 95.470158 256.809867 
L 183.355266 176.596183 
L 184.827606 64.263623 
" style="fill: none; stroke: #b0b0b0; stroke-width: 0.8"/>
    <path d="M 129.616981 267.962219 
L 215.55564 185.95556 
L 218.462142 72.788997 
" style="fill: none; stroke: #b0b0b0; stroke-width: 0.8"/>
    <path d="M 164.565586 279.376433 
L 248.447634 195.515964 
L 252.851266 81.505638 
" style="fill: none; stroke: #b0b0b0; stroke-width: 0.8"/>
   </g>
   <g id="xtick_1">
    <g id="line2d_2">
     <path d="M 62.879717 245.226605 
L 60.530699 247.281151 
" style="fill: none; stroke: #000000; stroke-width: 0.8; stroke-linecap: square"/>
    </g>
    <g id="text_2">
     <!-- −2 -->
     <g transform="translate(44.274413 272.419583) scale(0.14 -0.14)">
      <defs>
       <path id="DejaVuSans-2212" d="M 678 2272 
L 4684 2272 
L 4684 1741 
L 678 1741 
L 678 2272 
z
" transform="scale(0.015625)"/>
       <path id="DejaVuSans-32" d="M 1228 531 
L 3431 531 
L 3431 0 
L 469 0 
L 469 531 
Q 828 903 1448 1529 
Q 2069 2156 2228 2338 
Q 2531 2678 2651 2914 
Q 2772 3150 2772 3378 
Q 2772 3750 2511 3984 
Q 2250 4219 1831 4219 
Q 1534 4219 1204 4116 
Q 875 4013 500 3803 
L 500 4441 
Q 881 4594 1212 4672 
Q 1544 4750 1819 4750 
Q 2544 4750 2975 4387 
Q 3406 4025 3406 3419 
Q 3406 3131 3298 2873 
Q 3191 2616 2906 2266 
Q 2828 2175 2409 1742 
Q 1991 1309 1228 531 
z
" transform="scale(0.015625)"/>
      </defs>
      <use xlink:href="#DejaVuSans-2212"/>
      <use xlink:href="#DejaVuSans-32" x="83.789062"/>
     </g>
    </g>
   </g>
   <g id="xtick_2">
    <g id="line2d_3">
     <path d="M 96.236705 256.110232 
L 93.933709 258.2122 
" style="fill: none; stroke: #000000; stroke-width: 0.8; stroke-linecap: square"/>
    </g>
    <g id="text_3">
     <!-- 0 -->
     <g transform="translate(83.547596 283.541376) scale(0.14 -0.14)">
      <defs>
       <path id="DejaVuSans-30" d="M 2034 4250 
Q 1547 4250 1301 3770 
Q 1056 3291 1056 2328 
Q 1056 1369 1301 889 
Q 1547 409 2034 409 
Q 2525 409 2770 889 
Q 3016 1369 3016 2328 
Q 3016 3291 2770 3770 
Q 2525 4250 2034 4250 
z
M 2034 4750 
Q 2819 4750 3233 4129 
Q 3647 3509 3647 2328 
Q 3647 1150 3233 529 
Q 2819 -91 2034 -91 
Q 1250 -91 836 529 
Q 422 1150 422 2328 
Q 422 3509 836 4129 
Q 1250 4750 2034 4750 
z
" transform="scale(0.015625)"/>
      </defs>
      <use xlink:href="#DejaVuSans-30"/>
     </g>
    </g>
   </g>
   <g id="xtick_3">
    <g id="line2d_4">
     <path d="M 130.36727 267.246259 
L 128.11308 269.397311 
" style="fill: none; stroke: #000000; stroke-width: 0.8; stroke-linecap: square"/>
    </g>
    <g id="text_4">
     <!-- 2 -->
     <g transform="translate(117.733171 294.922233) scale(0.14 -0.14)">
      <use xlink:href="#DejaVuSans-32"/>
     </g>
    </g>
   </g>
   <g id="xtick_4">
    <g id="line2d_5">
     <path d="M 165.298638 278.643569 
L 163.096196 280.845445 
" style="fill: none; stroke: #000000; stroke-width: 0.8; stroke-linecap: square"/>
    </g>
    <g id="text_5">
     <!-- 4 -->
     <g transform="translate(152.724429 306.571314) scale(0.14 -0.14)">
      <defs>
       <path id="DejaVuSans-34" d="M 2419 4116 
L 825 1625 
L 2419 1625 
L 2419 4116 
z
M 2253 4666 
L 3047 4666 
L 3047 1625 
L 3713 1625 
L 3713 1100 
L 3047 1100 
L 3047 0 
L 2419 0 
L 2419 1100 
L 313 1100 
L 313 1709 
L 2253 4666 
z
" transform="scale(0.015625)"/>
      </defs>
      <use xlink:href="#DejaVuSans-34"/>
     </g>
    </g>
   </g>
  </g>
  <g id="axis3d_2">
   <g id="line2d_6">
    <path d="M 266.560834 200.780756 
L 183.840905 285.671753 
" style="fill: none; stroke: #000000; stroke-width: 0.8; stroke-linecap: square"/>
   </g>
   <g id="text_6">
    <!-- y -->
    <g transform="translate(249.878454 273.198797) scale(0.14 -0.14)">
     <defs>
      <path id="DejaVuSans-79" d="M 2059 -325 
Q 1816 -950 1584 -1140 
Q 1353 -1331 966 -1331 
L 506 -1331 
L 506 -850 
L 844 -850 
Q 1081 -850 1212 -737 
Q 1344 -625 1503 -206 
L 1606 56 
L 191 3500 
L 800 3500 
L 1894 763 
L 2988 3500 
L 3597 3500 
L 2059 -325 
z
" transform="scale(0.015625)"/>
     </defs>
     <use xlink:href="#DejaVuSans-79"/>
    </g>
   </g>
   <g id="Line3DCollection_2">
    <path d="M 38.081389 106.037554 
L 42.974657 222.374082 
L 197.304406 271.854888 
" style="fill: none; stroke: #b0b0b0; stroke-width: 0.8"/>
    <path d="M 59.891849 90.121274 
L 63.753665 204.956705 
L 216.118377 252.547126 
" style="fill: none; stroke: #b0b0b0; stroke-width: 0.8"/>
    <path d="M 80.862001 74.818213 
L 83.765952 188.18201 
L 234.202503 233.988365 
" style="fill: none; stroke: #b0b0b0; stroke-width: 0.8"/>
    <path d="M 101.039488 60.093601 
L 103.053185 172.015068 
L 251.598444 216.135849 
" style="fill: none; stroke: #b0b0b0; stroke-width: 0.8"/>
   </g>
   <g id="xtick_5">
    <g id="line2d_7">
     <path d="M 196.004397 271.438083 
L 199.907761 272.689569 
" style="fill: none; stroke: #000000; stroke-width: 0.8; stroke-linecap: square"/>
    </g>
    <g id="text_7">
     <!-- −10 -->
     <g transform="translate(195.311839 295.802736) scale(0.14 -0.14)">
      <defs>
       <path id="DejaVuSans-31" d="M 794 531 
L 1825 531 
L 1825 4091 
L 703 3866 
L 703 4441 
L 1819 4666 
L 2450 4666 
L 2450 531 
L 3481 531 
L 3481 0 
L 794 0 
L 794 531 
z
" transform="scale(0.015625)"/>
      </defs>
      <use xlink:href="#DejaVuSans-2212"/>
      <use xlink:href="#DejaVuSans-31" x="83.789062"/>
      <use xlink:href="#DejaVuSans-30" x="147.412109"/>
     </g>
    </g>
   </g>
   <g id="xtick_6">
    <g id="line2d_8">
     <path d="M 214.836196 252.146643 
L 218.685963 253.3491 
" style="fill: none; stroke: #000000; stroke-width: 0.8; stroke-linecap: square"/>
    </g>
    <g id="text_8">
     <!-- −5 -->
     <g transform="translate(218.33713 276.220763) scale(0.14 -0.14)">
      <defs>
       <path id="DejaVuSans-35" d="M 691 4666 
L 3169 4666 
L 3169 4134 
L 1269 4134 
L 1269 2991 
Q 1406 3038 1543 3061 
Q 1681 3084 1819 3084 
Q 2600 3084 3056 2656 
Q 3513 2228 3513 1497 
Q 3513 744 3044 326 
Q 2575 -91 1722 -91 
Q 1428 -91 1123 -41 
Q 819 9 494 109 
L 494 744 
Q 775 591 1075 516 
Q 1375 441 1709 441 
Q 2250 441 2565 725 
Q 2881 1009 2881 1497 
Q 2881 1984 2565 2268 
Q 2250 2553 1709 2553 
Q 1456 2553 1204 2497 
Q 953 2441 691 2322 
L 691 4666 
z
" transform="scale(0.015625)"/>
      </defs>
      <use xlink:href="#DejaVuSans-2212"/>
      <use xlink:href="#DejaVuSans-35" x="83.789062"/>
     </g>
    </g>
   </g>
   <g id="xtick_7">
    <g id="line2d_9">
     <path d="M 232.937759 233.603263 
L 236.735109 234.759517 
" style="fill: none; stroke: #000000; stroke-width: 0.8; stroke-linecap: square"/>
    </g>
    <g id="text_9">
     <!-- 0 -->
     <g transform="translate(242.053617 257.398844) scale(0.14 -0.14)">
      <use xlink:href="#DejaVuSans-30"/>
     </g>
    </g>
   </g>
   <g id="xtick_8">
    <g id="line2d_10">
     <path d="M 250.350751 215.76526 
L 254.096849 216.877923 
" style="fill: none; stroke: #000000; stroke-width: 0.8; stroke-linecap: square"/>
    </g>
    <g id="text_10">
     <!-- 5 -->
     <g transform="translate(259.224657 239.293571) scale(0.14 -0.14)">
      <use xlink:href="#DejaVuSans-35"/>
     </g>
    </g>
   </g>
  </g>
  <g id="axis3d_3">
   <g id="line2d_11">
    <path d="M 266.560834 200.780756 
L 271.802814 86.309303 
" style="fill: none; stroke: #000000; stroke-width: 0.8; stroke-linecap: square"/>
   </g>
   <g id="text_11">
    <!-- z -->
    <g transform="translate(305.83702 143.25131) scale(0.14 -0.14)">
     <defs>
      <path id="DejaVuSans-7a" d="M 353 3500 
L 3084 3500 
L 3084 2975 
L 922 459 
L 3084 459 
L 3084 0 
L 275 0 
L 275 525 
L 2438 3041 
L 353 3041 
L 353 3500 
z
" transform="scale(0.015625)"/>
     </defs>
     <use xlink:href="#DejaVuSans-7a"/>
    </g>
   </g>
   <g id="Line3DCollection_3">
    <path d="M 267.101532 188.973295 
L 119.5395 146.649745 
L 27.54828 222.726323 
" style="fill: none; stroke: #b0b0b0; stroke-width: 0.8"/>
    <path d="M 268.21682 164.618259 
L 119.26843 123.076782 
L 26.346682 197.774363 
" style="fill: none; stroke: #b0b0b0; stroke-width: 0.8"/>
    <path d="M 269.353472 139.796669 
L 118.992418 99.074032 
L 25.121179 172.325992 
" style="fill: none; stroke: #b0b0b0; stroke-width: 0.8"/>
    <path d="M 270.51211 114.494988 
L 118.711327 74.629635 
L 23.87105 146.366248 
" style="fill: none; stroke: #b0b0b0; stroke-width: 0.8"/>
    <path d="M 271.693376 88.699152 
L 118.425016 49.731286 
L 22.595545 119.879561 
" style="fill: none; stroke: #b0b0b0; stroke-width: 0.8"/>
   </g>
   <g id="xtick_9">
    <g id="line2d_12">
     <path d="M 265.862812 188.618007 
L 269.581931 189.68472 
" style="fill: none; stroke: #000000; stroke-width: 0.8; stroke-linecap: square"/>
    </g>
    <g id="text_12">
     <!-- −10 -->
     <g transform="translate(270.661604 197.02794) scale(0.14 -0.14)">
      <use xlink:href="#DejaVuSans-2212"/>
      <use xlink:href="#DejaVuSans-31" x="83.789062"/>
      <use xlink:href="#DejaVuSans-30" x="147.412109"/>
     </g>
    </g>
   </g>
   <g id="xtick_10">
    <g id="line2d_13">
     <path d="M 266.965905 164.269381 
L 270.721667 165.316857 
" style="fill: none; stroke: #000000; stroke-width: 0.8; stroke-linecap: square"/>
    </g>
    <g id="text_13">
     <!-- −5 -->
     <g transform="translate(276.400813 172.719567) scale(0.14 -0.14)">
      <use xlink:href="#DejaVuSans-2212"/>
      <use xlink:href="#DejaVuSans-35" x="83.789062"/>
     </g>
    </g>
   </g>
   <g id="xtick_11">
    <g id="line2d_14">
     <path d="M 268.09012 139.454512 
L 271.883253 140.481815 
" style="fill: none; stroke: #000000; stroke-width: 0.8; stroke-linecap: square"/>
    </g>
    <g id="text_14">
     <!-- 0 -->
     <g transform="translate(283.576605 147.946905) scale(0.14 -0.14)">
      <use xlink:href="#DejaVuSans-30"/>
     </g>
    </g>
   </g>
   <g id="xtick_12">
    <g id="line2d_15">
     <path d="M 269.236071 114.159879 
L 273.067325 115.166029 
" style="fill: none; stroke: #000000; stroke-width: 0.8; stroke-linecap: square"/>
    </g>
    <g id="text_15">
     <!-- 5 -->
     <g transform="translate(284.911878 122.696526) scale(0.14 -0.14)">
      <use xlink:href="#DejaVuSans-35"/>
     </g>
    </g>
   </g>
   <g id="xtick_13">
    <g id="line2d_16">
     <path d="M 270.404393 88.371433 
L 274.274542 89.355403 
" style="fill: none; stroke: #000000; stroke-width: 0.8; stroke-linecap: square"/>
    </g>
    <g id="text_16">
     <!-- 10 -->
     <g transform="translate(281.819401 96.954474) scale(0.14 -0.14)">
      <use xlink:href="#DejaVuSans-31"/>
      <use xlink:href="#DejaVuSans-30" x="63.623047"/>
     </g>
    </g>
   </g>
  </g>
  <g id="axes_1">
   <g id="Path3DCollection_1">
    <defs>
     <path id="me97b0bd255" d="M 0 2.236068 
C 0.593012 2.236068 1.161816 2.000462 1.581139 1.581139 
C 2.000462 1.161816 2.236068 0.593012 2.236068 0 
C 2.236068 -0.593012 2.000462 -1.161816 1.581139 -1.581139 
C 1.161816 -2.000462 0.593012 -2.236068 0 -2.236068 
C -0.593012 -2.236068 -1.161816 -2.000462 -1.581139 -1.581139 
C -2.000462 -1.161816 -2.236068 -0.593012 -2.236068 0 
C -2.236068 0.593012 -2.000462 1.161816 -1.581139 1.581139 
C -1.161816 2.000462 -0.593012 2.236068 0 2.236068 
z
" style="stroke: #ff0000"/>
    </defs>
    <g clip-path="url(#pf4469948c5)">
     <use xlink:href="#me97b0bd255" x="146.181179" y="140.961578" style="fill: #ff0000; stroke: #ff0000"/>
    </g>
   </g>
   <g id="text_17">
    <!-- Intersection of Three Planes -->
    <g transform="translate(28.255125 19.965375) scale(0.168 -0.168)">
     <defs>
      <path id="DejaVuSans-49" d="M 628 4666 
L 1259 4666 
L 1259 0 
L 628 0 
L 628 4666 
z
" transform="scale(0.015625)"/>
      <path id="DejaVuSans-6e" d="M 3513 2113 
L 3513 0 
L 2938 0 
L 2938 2094 
Q 2938 2591 2744 2837 
Q 2550 3084 2163 3084 
Q 1697 3084 1428 2787 
Q 1159 2491 1159 1978 
L 1159 0 
L 581 0 
L 581 3500 
L 1159 3500 
L 1159 2956 
Q 1366 3272 1645 3428 
Q 1925 3584 2291 3584 
Q 2894 3584 3203 3211 
Q 3513 2838 3513 2113 
z
" transform="scale(0.015625)"/>
      <path id="DejaVuSans-74" d="M 1172 4494 
L 1172 3500 
L 2356 3500 
L 2356 3053 
L 1172 3053 
L 1172 1153 
Q 1172 725 1289 603 
Q 1406 481 1766 481 
L 2356 481 
L 2356 0 
L 1766 0 
Q 1100 0 847 248 
Q 594 497 594 1153 
L 594 3053 
L 172 3053 
L 172 3500 
L 594 3500 
L 594 4494 
L 1172 4494 
z
" transform="scale(0.015625)"/>
      <path id="DejaVuSans-65" d="M 3597 1894 
L 3597 1613 
L 953 1613 
Q 991 1019 1311 708 
Q 1631 397 2203 397 
Q 2534 397 2845 478 
Q 3156 559 3463 722 
L 3463 178 
Q 3153 47 2828 -22 
Q 2503 -91 2169 -91 
Q 1331 -91 842 396 
Q 353 884 353 1716 
Q 353 2575 817 3079 
Q 1281 3584 2069 3584 
Q 2775 3584 3186 3129 
Q 3597 2675 3597 1894 
z
M 3022 2063 
Q 3016 2534 2758 2815 
Q 2500 3097 2075 3097 
Q 1594 3097 1305 2825 
Q 1016 2553 972 2059 
L 3022 2063 
z
" transform="scale(0.015625)"/>
      <path id="DejaVuSans-72" d="M 2631 2963 
Q 2534 3019 2420 3045 
Q 2306 3072 2169 3072 
Q 1681 3072 1420 2755 
Q 1159 2438 1159 1844 
L 1159 0 
L 581 0 
L 581 3500 
L 1159 3500 
L 1159 2956 
Q 1341 3275 1631 3429 
Q 1922 3584 2338 3584 
Q 2397 3584 2469 3576 
Q 2541 3569 2628 3553 
L 2631 2963 
z
" transform="scale(0.015625)"/>
      <path id="DejaVuSans-73" d="M 2834 3397 
L 2834 2853 
Q 2591 2978 2328 3040 
Q 2066 3103 1784 3103 
Q 1356 3103 1142 2972 
Q 928 2841 928 2578 
Q 928 2378 1081 2264 
Q 1234 2150 1697 2047 
L 1894 2003 
Q 2506 1872 2764 1633 
Q 3022 1394 3022 966 
Q 3022 478 2636 193 
Q 2250 -91 1575 -91 
Q 1294 -91 989 -36 
Q 684 19 347 128 
L 347 722 
Q 666 556 975 473 
Q 1284 391 1588 391 
Q 1994 391 2212 530 
Q 2431 669 2431 922 
Q 2431 1156 2273 1281 
Q 2116 1406 1581 1522 
L 1381 1569 
Q 847 1681 609 1914 
Q 372 2147 372 2553 
Q 372 3047 722 3315 
Q 1072 3584 1716 3584 
Q 2034 3584 2315 3537 
Q 2597 3491 2834 3397 
z
" transform="scale(0.015625)"/>
      <path id="DejaVuSans-63" d="M 3122 3366 
L 3122 2828 
Q 2878 2963 2633 3030 
Q 2388 3097 2138 3097 
Q 1578 3097 1268 2742 
Q 959 2388 959 1747 
Q 959 1106 1268 751 
Q 1578 397 2138 397 
Q 2388 397 2633 464 
Q 2878 531 3122 666 
L 3122 134 
Q 2881 22 2623 -34 
Q 2366 -91 2075 -91 
Q 1284 -91 818 406 
Q 353 903 353 1747 
Q 353 2603 823 3093 
Q 1294 3584 2113 3584 
Q 2378 3584 2631 3529 
Q 2884 3475 3122 3366 
z
" transform="scale(0.015625)"/>
      <path id="DejaVuSans-69" d="M 603 3500 
L 1178 3500 
L 1178 0 
L 603 0 
L 603 3500 
z
M 603 4863 
L 1178 4863 
L 1178 4134 
L 603 4134 
L 603 4863 
z
" transform="scale(0.015625)"/>
      <path id="DejaVuSans-6f" d="M 1959 3097 
Q 1497 3097 1228 2736 
Q 959 2375 959 1747 
Q 959 1119 1226 758 
Q 1494 397 1959 397 
Q 2419 397 2687 759 
Q 2956 1122 2956 1747 
Q 2956 2369 2687 2733 
Q 2419 3097 1959 3097 
z
M 1959 3584 
Q 2709 3584 3137 3096 
Q 3566 2609 3566 1747 
Q 3566 888 3137 398 
Q 2709 -91 1959 -91 
Q 1206 -91 779 398 
Q 353 888 353 1747 
Q 353 2609 779 3096 
Q 1206 3584 1959 3584 
z
" transform="scale(0.015625)"/>
      <path id="DejaVuSans-20" transform="scale(0.015625)"/>
      <path id="DejaVuSans-66" d="M 2375 4863 
L 2375 4384 
L 1825 4384 
Q 1516 4384 1395 4259 
Q 1275 4134 1275 3809 
L 1275 3500 
L 2222 3500 
L 2222 3053 
L 1275 3053 
L 1275 0 
L 697 0 
L 697 3053 
L 147 3053 
L 147 3500 
L 697 3500 
L 697 3744 
Q 697 4328 969 4595 
Q 1241 4863 1831 4863 
L 2375 4863 
z
" transform="scale(0.015625)"/>
      <path id="DejaVuSans-54" d="M -19 4666 
L 3928 4666 
L 3928 4134 
L 2272 4134 
L 2272 0 
L 1638 0 
L 1638 4134 
L -19 4134 
L -19 4666 
z
" transform="scale(0.015625)"/>
      <path id="DejaVuSans-68" d="M 3513 2113 
L 3513 0 
L 2938 0 
L 2938 2094 
Q 2938 2591 2744 2837 
Q 2550 3084 2163 3084 
Q 1697 3084 1428 2787 
Q 1159 2491 1159 1978 
L 1159 0 
L 581 0 
L 581 4863 
L 1159 4863 
L 1159 2956 
Q 1366 3272 1645 3428 
Q 1925 3584 2291 3584 
Q 2894 3584 3203 3211 
Q 3513 2838 3513 2113 
z
" transform="scale(0.015625)"/>
      <path id="DejaVuSans-50" d="M 1259 4147 
L 1259 2394 
L 2053 2394 
Q 2494 2394 2734 2622 
Q 2975 2850 2975 3272 
Q 2975 3691 2734 3919 
Q 2494 4147 2053 4147 
L 1259 4147 
z
M 628 4666 
L 2053 4666 
Q 2838 4666 3239 4311 
Q 3641 3956 3641 3272 
Q 3641 2581 3239 2228 
Q 2838 1875 2053 1875 
L 1259 1875 
L 1259 0 
L 628 0 
L 628 4666 
z
" transform="scale(0.015625)"/>
      <path id="DejaVuSans-6c" d="M 603 4863 
L 1178 4863 
L 1178 0 
L 603 0 
L 603 4863 
z
" transform="scale(0.015625)"/>
      <path id="DejaVuSans-61" d="M 2194 1759 
Q 1497 1759 1228 1600 
Q 959 1441 959 1056 
Q 959 750 1161 570 
Q 1363 391 1709 391 
Q 2188 391 2477 730 
Q 2766 1069 2766 1631 
L 2766 1759 
L 2194 1759 
z
M 3341 1997 
L 3341 0 
L 2766 0 
L 2766 531 
Q 2569 213 2275 61 
Q 1981 -91 1556 -91 
Q 1019 -91 701 211 
Q 384 513 384 1019 
Q 384 1609 779 1909 
Q 1175 2209 1959 2209 
L 2766 2209 
L 2766 2266 
Q 2766 2663 2505 2880 
Q 2244 3097 1772 3097 
Q 1472 3097 1187 3025 
Q 903 2953 641 2809 
L 641 3341 
Q 956 3463 1253 3523 
Q 1550 3584 1831 3584 
Q 2591 3584 2966 3190 
Q 3341 2797 3341 1997 
z
" transform="scale(0.015625)"/>
     </defs>
     <use xlink:href="#DejaVuSans-49"/>
     <use xlink:href="#DejaVuSans-6e" x="29.492188"/>
     <use xlink:href="#DejaVuSans-74" x="92.871094"/>
     <use xlink:href="#DejaVuSans-65" x="132.080078"/>
     <use xlink:href="#DejaVuSans-72" x="193.603516"/>
     <use xlink:href="#DejaVuSans-73" x="234.716797"/>
     <use xlink:href="#DejaVuSans-65" x="286.816406"/>
     <use xlink:href="#DejaVuSans-63" x="348.339844"/>
     <use xlink:href="#DejaVuSans-74" x="403.320312"/>
     <use xlink:href="#DejaVuSans-69" x="442.529297"/>
     <use xlink:href="#DejaVuSans-6f" x="470.3125"/>
     <use xlink:href="#DejaVuSans-6e" x="531.494141"/>
     <use xlink:href="#DejaVuSans-20" x="594.873047"/>
     <use xlink:href="#DejaVuSans-6f" x="626.660156"/>
     <use xlink:href="#DejaVuSans-66" x="687.841797"/>
     <use xlink:href="#DejaVuSans-20" x="723.046875"/>
     <use xlink:href="#DejaVuSans-54" x="754.833984"/>
     <use xlink:href="#DejaVuSans-68" x="815.917969"/>
     <use xlink:href="#DejaVuSans-72" x="879.296875"/>
     <use xlink:href="#DejaVuSans-65" x="918.160156"/>
     <use xlink:href="#DejaVuSans-65" x="979.683594"/>
     <use xlink:href="#DejaVuSans-20" x="1041.207031"/>
     <use xlink:href="#DejaVuSans-50" x="1072.994141"/>
     <use xlink:href="#DejaVuSans-6c" x="1133.296875"/>
     <use xlink:href="#DejaVuSans-61" x="1161.080078"/>
     <use xlink:href="#DejaVuSans-6e" x="1222.359375"/>
     <use xlink:href="#DejaVuSans-65" x="1285.738281"/>
     <use xlink:href="#DejaVuSans-73" x="1347.261719"/>
    </g>
   </g>
   <g id="Poly3DCollection_1">
    <path d="M 108.782172 197.96847 
L 115.862962 193.700412 
L 117.544854 187.874166 
L 110.45577 192.170956 
z
" clip-path="url(#pf4469948c5)" style="fill: #1f76b3; fill-opacity: 0.5"/>
    <path d="M 110.45577 192.170956 
L 117.544854 187.874166 
L 119.226747 182.04792 
L 112.129368 186.373441 
z
" clip-path="url(#pf4469948c5)" style="fill: #1f76b3; fill-opacity: 0.5"/>
    <path d="M 112.129368 186.373441 
L 119.226747 182.04792 
L 120.908639 176.221674 
L 113.802967 180.575926 
z
" clip-path="url(#pf4469948c5)" style="fill: #1f76b3; fill-opacity: 0.5"/>
    <path d="M 113.802967 180.575926 
L 120.908639 176.221674 
L 122.590531 170.395429 
L 115.476565 174.778412 
z
" clip-path="url(#pf4469948c5)" style="fill: #1f76b3; fill-opacity: 0.5"/>
    <path d="M 115.476565 174.778412 
L 122.590531 170.395429 
L 124.272424 164.569183 
L 117.150163 168.980897 
z
" clip-path="url(#pf4469948c5)" style="fill: #1f76b3; fill-opacity: 0.5"/>
    <path d="M 117.150163 168.980897 
L 124.272424 164.569183 
L 125.954316 158.742937 
L 118.823761 163.183383 
z
" clip-path="url(#pf4469948c5)" style="fill: #1f76b3; fill-opacity: 0.5"/>
    <path d="M 118.823761 163.183383 
L 125.954316 158.742937 
L 127.636208 152.916691 
L 120.49736 157.385868 
z
" clip-path="url(#pf4469948c5)" style="fill: #1f76b3; fill-opacity: 0.5"/>
    <path d="M 120.49736 157.385868 
L 127.636208 152.916691 
L 129.3181 147.090445 
L 122.170958 151.588354 
z
" clip-path="url(#pf4469948c5)" style="fill: #1f76b3; fill-opacity: 0.5"/>
    <path d="M 122.170958 151.588354 
L 129.3181 147.090445 
L 130.999993 141.264199 
L 123.844556 145.790839 
z
" clip-path="url(#pf4469948c5)" style="fill: #1f76b3; fill-opacity: 0.5"/>
    <path d="M 115.862962 193.700412 
L 123.014284 189.38984 
L 124.704553 183.534577 
L 117.544854 187.874166 
z
" clip-path="url(#pf4469948c5)" style="fill: #1f76b3; fill-opacity: 0.5"/>
    <path d="M 117.544854 187.874166 
L 124.704553 183.534577 
L 126.394822 177.679313 
L 119.226747 182.04792 
z
" clip-path="url(#pf4469948c5)" style="fill: #1f76b3; fill-opacity: 0.5"/>
    <path d="M 119.226747 182.04792 
L 126.394822 177.679313 
L 128.085091 171.82405 
L 120.908639 176.221674 
z
" clip-path="url(#pf4469948c5)" style="fill: #1f76b3; fill-opacity: 0.5"/>
    <path d="M 120.908639 176.221674 
L 128.085091 171.82405 
L 129.77536 165.968787 
L 122.590531 170.395429 
z
" clip-path="url(#pf4469948c5)" style="fill: #1f76b3; fill-opacity: 0.5"/>
    <path d="M 122.590531 170.395429 
L 129.77536 165.968787 
L 131.465628 160.113523 
L 124.272424 164.569183 
z
" clip-path="url(#pf4469948c5)" style="fill: #1f76b3; fill-opacity: 0.5"/>
    <path d="M 124.272424 164.569183 
L 131.465628 160.113523 
L 133.155897 154.25826 
L 125.954316 158.742937 
z
" clip-path="url(#pf4469948c5)" style="fill: #1f76b3; fill-opacity: 0.5"/>
    <path d="M 125.954316 158.742937 
L 133.155897 154.25826 
L 134.846166 148.402996 
L 127.636208 152.916691 
z
" clip-path="url(#pf4469948c5)" style="fill: #1f76b3; fill-opacity: 0.5"/>
    <path d="M 127.636208 152.916691 
L 134.846166 148.402996 
L 136.536435 142.547733 
L 129.3181 147.090445 
z
" clip-path="url(#pf4469948c5)" style="fill: #1f76b3; fill-opacity: 0.5"/>
    <path d="M 129.3181 147.090445 
L 136.536435 142.547733 
L 138.226704 136.69247 
L 130.999993 141.264199 
z
" clip-path="url(#pf4469948c5)" style="fill: #1f76b3; fill-opacity: 0.5"/>
    <path d="M 126.394822 177.679313 
L 133.634655 173.266973 
L 135.333384 167.382402 
L 128.085091 171.82405 
z
" clip-path="url(#pf4469948c5)" style="fill: #1f76b3; fill-opacity: 0.5"/>
    <path d="M 133.155897 154.25826 
L 140.429573 149.728687 
L 142.128302 143.844116 
L 134.846166 148.402996 
z
" clip-path="url(#pf4469948c5)" style="fill: #1f76b3; fill-opacity: 0.5"/>
    <path d="M 123.014284 189.38984 
L 130.237196 185.036116 
L 131.935926 179.151544 
L 124.704553 183.534577 
z
" clip-path="url(#pf4469948c5)" style="fill: #1f76b3; fill-opacity: 0.5"/>
    <path d="M 128.085091 171.82405 
L 135.333384 167.382402 
L 137.032114 161.49783 
L 129.77536 165.968787 
z
" clip-path="url(#pf4469948c5)" style="fill: #1f76b3; fill-opacity: 0.5"/>
    <path d="M 134.846166 148.402996 
L 142.128302 143.844116 
L 143.827032 137.959545 
L 136.536435 142.547733 
z
" clip-path="url(#pf4469948c5)" style="fill: #1f76b3; fill-opacity: 0.5"/>
    <path d="M 124.704553 183.534577 
L 131.935926 179.151544 
L 133.634655 173.266973 
L 126.394822 177.679313 
z
" clip-path="url(#pf4469948c5)" style="fill: #1f76b3; fill-opacity: 0.5"/>
    <path d="M 129.77536 165.968787 
L 137.032114 161.49783 
L 138.730843 155.613259 
L 131.465628 160.113523 
z
" clip-path="url(#pf4469948c5)" style="fill: #1f76b3; fill-opacity: 0.5"/>
    <path d="M 131.465628 160.113523 
L 138.730843 155.613259 
L 140.429573 149.728687 
L 133.155897 154.25826 
z
" clip-path="url(#pf4469948c5)" style="fill: #1f76b3; fill-opacity: 0.5"/>
    <path d="M 136.536435 142.547733 
L 143.827032 137.959545 
L 145.525761 132.074973 
L 138.226704 136.69247 
z
" clip-path="url(#pf4469948c5)" style="fill: #1f76b3; fill-opacity: 0.5"/>
    <path d="M 133.634655 173.266973 
L 140.94733 168.810239 
L 142.654605 162.896065 
L 135.333384 167.382402 
z
" clip-path="url(#pf4469948c5)" style="fill: #1f76b3; fill-opacity: 0.5"/>
    <path d="M 140.429573 149.728687 
L 147.77643 145.153542 
L 149.483705 139.239368 
L 142.128302 143.844116 
z
" clip-path="url(#pf4469948c5)" style="fill: #1f76b3; fill-opacity: 0.5"/>
    <path d="M 130.237196 185.036116 
L 137.53278 180.638588 
L 139.240055 174.724413 
L 131.935926 179.151544 
z
" clip-path="url(#pf4469948c5)" style="fill: #1f76b3; fill-opacity: 0.5"/>
    <path d="M 135.333384 167.382402 
L 142.654605 162.896065 
L 144.36188 156.981891 
L 137.032114 161.49783 
z
" clip-path="url(#pf4469948c5)" style="fill: #1f76b3; fill-opacity: 0.5"/>
    <path d="M 142.128302 143.844116 
L 149.483705 139.239368 
L 151.19098 133.325194 
L 143.827032 137.959545 
z
" clip-path="url(#pf4469948c5)" style="fill: #1f76b3; fill-opacity: 0.5"/>
    <path d="M 131.935926 179.151544 
L 139.240055 174.724413 
L 140.94733 168.810239 
L 133.634655 173.266973 
z
" clip-path="url(#pf4469948c5)" style="fill: #1f76b3; fill-opacity: 0.5"/>
    <path d="M 137.032114 161.49783 
L 144.36188 156.981891 
L 146.069155 151.067716 
L 138.730843 155.613259 
z
" clip-path="url(#pf4469948c5)" style="fill: #1f76b3; fill-opacity: 0.5"/>
    <path d="M 138.730843 155.613259 
L 146.069155 151.067716 
L 147.77643 145.153542 
L 140.429573 149.728687 
z
" clip-path="url(#pf4469948c5)" style="fill: #1f76b3; fill-opacity: 0.5"/>
    <path d="M 143.827032 137.959545 
L 151.19098 133.325194 
L 152.898255 127.41102 
L 145.525761 132.074973 
z
" clip-path="url(#pf4469948c5)" style="fill: #1f76b3; fill-opacity: 0.5"/>
    <path d="M 137.53278 180.638588 
L 144.902136 176.196592 
L 146.618043 170.252515 
L 139.240055 174.724413 
z
" clip-path="url(#pf4469948c5)" style="fill: #1f76b3; fill-opacity: 0.5"/>
    <path d="M 139.240055 174.724413 
L 146.618043 170.252515 
L 148.33395 164.308439 
L 140.94733 168.810239 
z
" clip-path="url(#pf4469948c5)" style="fill: #1f76b3; fill-opacity: 0.5"/>
    <path d="M 140.94733 168.810239 
L 148.33395 164.308439 
L 150.049857 158.364362 
L 142.654605 162.896065 
z
" clip-path="url(#pf4469948c5)" style="fill: #1f76b3; fill-opacity: 0.5"/>
    <path d="M 142.654605 162.896065 
L 150.049857 158.364362 
L 151.765764 152.420286 
L 144.36188 156.981891 
z
" clip-path="url(#pf4469948c5)" style="fill: #1f76b3; fill-opacity: 0.5"/>
    <path d="M 144.36188 156.981891 
L 151.765764 152.420286 
L 153.481672 146.476209 
L 146.069155 151.067716 
z
" clip-path="url(#pf4469948c5)" style="fill: #1f76b3; fill-opacity: 0.5"/>
    <path d="M 146.069155 151.067716 
L 153.481672 146.476209 
L 155.197579 140.532133 
L 147.77643 145.153542 
z
" clip-path="url(#pf4469948c5)" style="fill: #1f76b3; fill-opacity: 0.5"/>
    <path d="M 147.77643 145.153542 
L 155.197579 140.532133 
L 156.913486 134.588057 
L 149.483705 139.239368 
z
" clip-path="url(#pf4469948c5)" style="fill: #1f76b3; fill-opacity: 0.5"/>
    <path d="M 149.483705 139.239368 
L 156.913486 134.588057 
L 158.629393 128.64398 
L 151.19098 133.325194 
z
" clip-path="url(#pf4469948c5)" style="fill: #1f76b3; fill-opacity: 0.5"/>
    <path d="M 151.19098 133.325194 
L 158.629393 128.64398 
L 160.3453 122.699904 
L 152.898255 127.41102 
z
" clip-path="url(#pf4469948c5)" style="fill: #1f76b3; fill-opacity: 0.5"/>
    <path d="M 144.902136 176.196592 
L 152.346391 171.70945 
L 154.071018 165.735167 
L 146.618043 170.252515 
z
" clip-path="url(#pf4469948c5)" style="fill: #1f76b3; fill-opacity: 0.5"/>
    <path d="M 146.618043 170.252515 
L 154.071018 165.735167 
L 155.795645 159.760885 
L 148.33395 164.308439 
z
" clip-path="url(#pf4469948c5)" style="fill: #1f76b3; fill-opacity: 0.5"/>
    <path d="M 148.33395 164.308439 
L 155.795645 159.760885 
L 157.520271 153.786602 
L 150.049857 158.364362 
z
" clip-path="url(#pf4469948c5)" style="fill: #1f76b3; fill-opacity: 0.5"/>
    <path d="M 150.049857 158.364362 
L 157.520271 153.786602 
L 159.244898 147.812319 
L 151.765764 152.420286 
z
" clip-path="url(#pf4469948c5)" style="fill: #1f76b3; fill-opacity: 0.5"/>
    <path d="M 151.765764 152.420286 
L 159.244898 147.812319 
L 160.969525 141.838037 
L 153.481672 146.476209 
z
" clip-path="url(#pf4469948c5)" style="fill: #1f76b3; fill-opacity: 0.5"/>
    <path d="M 153.481672 146.476209 
L 160.969525 141.838037 
L 162.694152 135.863754 
L 155.197579 140.532133 
z
" clip-path="url(#pf4469948c5)" style="fill: #1f76b3; fill-opacity: 0.5"/>
    <path d="M 155.197579 140.532133 
L 162.694152 135.863754 
L 164.418779 129.889472 
L 156.913486 134.588057 
z
" clip-path="url(#pf4469948c5)" style="fill: #1f76b3; fill-opacity: 0.5"/>
    <path d="M 156.913486 134.588057 
L 164.418779 129.889472 
L 166.143406 123.915189 
L 158.629393 128.64398 
z
" clip-path="url(#pf4469948c5)" style="fill: #1f76b3; fill-opacity: 0.5"/>
    <path d="M 158.629393 128.64398 
L 166.143406 123.915189 
L 167.868032 117.940907 
L 160.3453 122.699904 
z
" clip-path="url(#pf4469948c5)" style="fill: #1f76b3; fill-opacity: 0.5"/>
    <path d="M 152.346391 171.70945 
L 159.866691 167.17647 
L 161.600127 161.171673 
L 154.071018 165.735167 
z
" clip-path="url(#pf4469948c5)" style="fill: #1f76b3; fill-opacity: 0.5"/>
    <path d="M 154.071018 165.735167 
L 161.600127 161.171673 
L 163.333563 155.166876 
L 155.795645 159.760885 
z
" clip-path="url(#pf4469948c5)" style="fill: #1f76b3; fill-opacity: 0.5"/>
    <path d="M 155.795645 159.760885 
L 163.333563 155.166876 
L 165.066998 149.162078 
L 157.520271 153.786602 
z
" clip-path="url(#pf4469948c5)" style="fill: #1f76b3; fill-opacity: 0.5"/>
    <path d="M 157.520271 153.786602 
L 165.066998 149.162078 
L 166.800434 143.157281 
L 159.244898 147.812319 
z
" clip-path="url(#pf4469948c5)" style="fill: #1f76b3; fill-opacity: 0.5"/>
    <path d="M 159.244898 147.812319 
L 166.800434 143.157281 
L 168.53387 137.152484 
L 160.969525 141.838037 
z
" clip-path="url(#pf4469948c5)" style="fill: #1f76b3; fill-opacity: 0.5"/>
    <path d="M 160.969525 141.838037 
L 168.53387 137.152484 
L 170.267305 131.147686 
L 162.694152 135.863754 
z
" clip-path="url(#pf4469948c5)" style="fill: #1f76b3; fill-opacity: 0.5"/>
    <path d="M 162.694152 135.863754 
L 170.267305 131.147686 
L 172.000741 125.142889 
L 164.418779 129.889472 
z
" clip-path="url(#pf4469948c5)" style="fill: #1f76b3; fill-opacity: 0.5"/>
    <path d="M 164.418779 129.889472 
L 172.000741 125.142889 
L 173.734177 119.138092 
L 166.143406 123.915189 
z
" clip-path="url(#pf4469948c5)" style="fill: #1f76b3; fill-opacity: 0.5"/>
    <path d="M 166.143406 123.915189 
L 173.734177 119.138092 
L 175.467612 113.133295 
L 167.868032 117.940907 
z
" clip-path="url(#pf4469948c5)" style="fill: #1f76b3; fill-opacity: 0.5"/>
    <path d="M 159.866691 167.17647 
L 167.464208 162.596947 
L 169.206543 156.561321 
L 161.600127 161.171673 
z
" clip-path="url(#pf4469948c5)" style="fill: #1f76b3; fill-opacity: 0.5"/>
    <path d="M 161.600127 161.171673 
L 169.206543 156.561321 
L 170.948878 150.525696 
L 163.333563 155.166876 
z
" clip-path="url(#pf4469948c5)" style="fill: #1f76b3; fill-opacity: 0.5"/>
    <path d="M 163.333563 155.166876 
L 170.948878 150.525696 
L 172.691213 144.490071 
L 165.066998 149.162078 
z
" clip-path="url(#pf4469948c5)" style="fill: #1f76b3; fill-opacity: 0.5"/>
    <path d="M 165.066998 149.162078 
L 172.691213 144.490071 
L 174.433548 138.454446 
L 166.800434 143.157281 
z
" clip-path="url(#pf4469948c5)" style="fill: #1f76b3; fill-opacity: 0.5"/>
    <path d="M 166.800434 143.157281 
L 174.433548 138.454446 
L 176.175883 132.41882 
L 168.53387 137.152484 
z
" clip-path="url(#pf4469948c5)" style="fill: #1f76b3; fill-opacity: 0.5"/>
    <path d="M 168.53387 137.152484 
L 176.175883 132.41882 
L 177.918218 126.383195 
L 170.267305 131.147686 
z
" clip-path="url(#pf4469948c5)" style="fill: #1f76b3; fill-opacity: 0.5"/>
    <path d="M 170.267305 131.147686 
L 177.918218 126.383195 
L 179.660553 120.34757 
L 172.000741 125.142889 
z
" clip-path="url(#pf4469948c5)" style="fill: #1f76b3; fill-opacity: 0.5"/>
    <path d="M 172.000741 125.142889 
L 179.660553 120.34757 
L 181.402888 114.311945 
L 173.734177 119.138092 
z
" clip-path="url(#pf4469948c5)" style="fill: #1f76b3; fill-opacity: 0.5"/>
    <path d="M 173.734177 119.138092 
L 181.402888 114.311945 
L 183.145223 108.276319 
L 175.467612 113.133295 
z
" clip-path="url(#pf4469948c5)" style="fill: #1f76b3; fill-opacity: 0.5"/>
    <path d="M 167.464208 162.596947 
L 175.140138 157.970159 
L 176.891464 151.903388 
L 169.206543 156.561321 
z
" clip-path="url(#pf4469948c5)" style="fill: #1f76b3; fill-opacity: 0.5"/>
    <path d="M 169.206543 156.561321 
L 176.891464 151.903388 
L 178.64279 145.836616 
L 170.948878 150.525696 
z
" clip-path="url(#pf4469948c5)" style="fill: #1f76b3; fill-opacity: 0.5"/>
    <path d="M 170.948878 150.525696 
L 178.64279 145.836616 
L 180.394116 139.769845 
L 172.691213 144.490071 
z
" clip-path="url(#pf4469948c5)" style="fill: #1f76b3; fill-opacity: 0.5"/>
    <path d="M 172.691213 144.490071 
L 180.394116 139.769845 
L 182.145442 133.703073 
L 174.433548 138.454446 
z
" clip-path="url(#pf4469948c5)" style="fill: #1f76b3; fill-opacity: 0.5"/>
    <path d="M 174.433548 138.454446 
L 182.145442 133.703073 
L 183.896768 127.636302 
L 176.175883 132.41882 
z
" clip-path="url(#pf4469948c5)" style="fill: #1f76b3; fill-opacity: 0.5"/>
    <path d="M 176.175883 132.41882 
L 183.896768 127.636302 
L 185.648094 121.56953 
L 177.918218 126.383195 
z
" clip-path="url(#pf4469948c5)" style="fill: #1f76b3; fill-opacity: 0.5"/>
    <path d="M 177.918218 126.383195 
L 185.648094 121.56953 
L 187.39942 115.502759 
L 179.660553 120.34757 
z
" clip-path="url(#pf4469948c5)" style="fill: #1f76b3; fill-opacity: 0.5"/>
    <path d="M 179.660553 120.34757 
L 187.39942 115.502759 
L 189.150747 109.435987 
L 181.402888 114.311945 
z
" clip-path="url(#pf4469948c5)" style="fill: #1f76b3; fill-opacity: 0.5"/>
    <path d="M 181.402888 114.311945 
L 189.150747 109.435987 
L 190.902073 103.369216 
L 183.145223 108.276319 
z
" clip-path="url(#pf4469948c5)" style="fill: #1f76b3; fill-opacity: 0.5"/>
   </g>
   <g id="Poly3DCollection_2">
    <path d="M 111.945654 121.808916 
L 102.933573 117.421235 
L 99.32288 114.213237 
L 108.312319 118.582154 
z
" clip-path="url(#pf4469948c5)" style="fill: #103b10; fill-opacity: 0.5"/>
    <path d="M 115.581709 125.038093 
L 106.546953 120.631621 
L 102.933573 117.421235 
L 111.945654 121.808916 
z
" clip-path="url(#pf4469948c5)" style="fill: #103b10; fill-opacity: 0.5"/>
    <path d="M 119.220485 128.269688 
L 110.163024 123.844398 
L 106.546953 120.631621 
L 115.581709 125.038093 
z
" clip-path="url(#pf4469948c5)" style="fill: #103b10; fill-opacity: 0.5"/>
    <path d="M 122.861986 131.503702 
L 113.781789 127.059568 
L 110.163024 123.844398 
L 119.220485 128.269688 
z
" clip-path="url(#pf4469948c5)" style="fill: #103b10; fill-opacity: 0.5"/>
    <path d="M 126.506215 134.74014 
L 117.40325 130.277134 
L 113.781789 127.059568 
L 122.861986 131.503702 
z
" clip-path="url(#pf4469948c5)" style="fill: #103b10; fill-opacity: 0.5"/>
    <path d="M 130.153175 137.979002 
L 121.02741 133.497098 
L 117.40325 130.277134 
L 126.506215 134.74014 
z
" clip-path="url(#pf4469948c5)" style="fill: #103b10; fill-opacity: 0.5"/>
    <path d="M 133.802869 141.220293 
L 124.654273 136.719463 
L 121.02741 133.497098 
L 130.153175 137.979002 
z
" clip-path="url(#pf4469948c5)" style="fill: #103b10; fill-opacity: 0.5"/>
    <path d="M 137.455301 144.464015 
L 128.283842 139.944232 
L 124.654273 136.719463 
L 133.802869 141.220293 
z
" clip-path="url(#pf4469948c5)" style="fill: #103b10; fill-opacity: 0.5"/>
    <path d="M 141.110473 147.710171 
L 131.916119 143.171408 
L 128.283842 139.944232 
L 137.455301 144.464015 
z
" clip-path="url(#pf4469948c5)" style="fill: #103b10; fill-opacity: 0.5"/>
    <path d="M 121.054498 126.243707 
L 111.945654 121.808916 
L 108.312319 118.582154 
L 117.398241 122.997962 
z
" clip-path="url(#pf4469948c5)" style="fill: #103b10; fill-opacity: 0.5"/>
    <path d="M 124.713506 129.491895 
L 115.581709 125.038093 
L 111.945654 121.808916 
L 121.054498 126.243707 
z
" clip-path="url(#pf4469948c5)" style="fill: #103b10; fill-opacity: 0.5"/>
    <path d="M 128.375268 132.742527 
L 119.220485 128.269688 
L 115.581709 125.038093 
L 124.713506 129.491895 
z
" clip-path="url(#pf4469948c5)" style="fill: #103b10; fill-opacity: 0.5"/>
    <path d="M 132.039787 135.995607 
L 122.861986 131.503702 
L 119.220485 128.269688 
L 128.375268 132.742527 
z
" clip-path="url(#pf4469948c5)" style="fill: #103b10; fill-opacity: 0.5"/>
    <path d="M 135.707066 139.251137 
L 126.506215 134.74014 
L 122.861986 131.503702 
L 132.039787 135.995607 
z
" clip-path="url(#pf4469948c5)" style="fill: #103b10; fill-opacity: 0.5"/>
    <path d="M 139.377108 142.50912 
L 130.153175 137.979002 
L 126.506215 134.74014 
L 135.707066 139.251137 
z
" clip-path="url(#pf4469948c5)" style="fill: #103b10; fill-opacity: 0.5"/>
    <path d="M 143.049916 145.769558 
L 133.802869 141.220293 
L 130.153175 137.979002 
L 139.377108 142.50912 
z
" clip-path="url(#pf4469948c5)" style="fill: #103b10; fill-opacity: 0.5"/>
    <path d="M 146.725494 149.032455 
L 137.455301 144.464015 
L 133.802869 141.220293 
L 143.049916 145.769558 
z
" clip-path="url(#pf4469948c5)" style="fill: #103b10; fill-opacity: 0.5"/>
    <path d="M 150.403844 152.297813 
L 141.110473 147.710171 
L 137.455301 144.464015 
L 146.725494 149.032455 
z
" clip-path="url(#pf4469948c5)" style="fill: #103b10; fill-opacity: 0.5"/>
    <path d="M 130.261671 130.726372 
L 121.054498 126.243707 
L 117.398241 122.997962 
L 126.582208 127.46142 
z
" clip-path="url(#pf4469948c5)" style="fill: #103b10; fill-opacity: 0.5"/>
    <path d="M 133.943918 133.993794 
L 124.713506 129.491895 
L 121.054498 126.243707 
L 130.261671 130.726372 
z
" clip-path="url(#pf4469948c5)" style="fill: #103b10; fill-opacity: 0.5"/>
    <path d="M 137.628952 137.263688 
L 128.375268 132.742527 
L 124.713506 129.491895 
L 133.943918 133.993794 
z
" clip-path="url(#pf4469948c5)" style="fill: #103b10; fill-opacity: 0.5"/>
    <path d="M 141.316774 140.536057 
L 132.039787 135.995607 
L 128.375268 132.742527 
L 137.628952 137.263688 
z
" clip-path="url(#pf4469948c5)" style="fill: #103b10; fill-opacity: 0.5"/>
    <path d="M 145.00739 143.810904 
L 135.707066 139.251137 
L 132.039787 135.995607 
L 141.316774 140.536057 
z
" clip-path="url(#pf4469948c5)" style="fill: #103b10; fill-opacity: 0.5"/>
    <path d="M 148.700801 147.088232 
L 139.377108 142.50912 
L 135.707066 139.251137 
L 145.00739 143.810904 
z
" clip-path="url(#pf4469948c5)" style="fill: #103b10; fill-opacity: 0.5"/>
    <path d="M 152.397011 150.368043 
L 143.049916 145.769558 
L 139.377108 142.50912 
L 148.700801 147.088232 
z
" clip-path="url(#pf4469948c5)" style="fill: #103b10; fill-opacity: 0.5"/>
    <path d="M 156.096023 153.650341 
L 146.725494 149.032455 
L 143.049916 145.769558 
L 152.397011 150.368043 
z
" clip-path="url(#pf4469948c5)" style="fill: #103b10; fill-opacity: 0.5"/>
    <path d="M 159.79784 156.935129 
L 150.403844 152.297813 
L 146.725494 149.032455 
L 156.096023 153.650341 
z
" clip-path="url(#pf4469948c5)" style="fill: #103b10; fill-opacity: 0.5"/>
    <path d="M 139.568775 135.257689 
L 130.261671 130.726372 
L 126.582208 127.46142 
L 135.865815 131.973304 
z
" clip-path="url(#pf4469948c5)" style="fill: #103b10; fill-opacity: 0.5"/>
    <path d="M 143.274551 138.544572 
L 133.943918 133.993794 
L 130.261671 130.726372 
L 139.568775 135.257689 
z
" clip-path="url(#pf4469948c5)" style="fill: #103b10; fill-opacity: 0.5"/>
    <path d="M 146.983146 141.833956 
L 137.628952 137.263688 
L 133.943918 133.993794 
L 143.274551 138.544572 
z
" clip-path="url(#pf4469948c5)" style="fill: #103b10; fill-opacity: 0.5"/>
    <path d="M 150.694564 145.125842 
L 141.316774 140.536057 
L 137.628952 137.263688 
L 146.983146 141.833956 
z
" clip-path="url(#pf4469948c5)" style="fill: #103b10; fill-opacity: 0.5"/>
    <path d="M 154.408808 148.420236 
L 145.00739 143.810904 
L 141.316774 140.536057 
L 150.694564 145.125842 
z
" clip-path="url(#pf4469948c5)" style="fill: #103b10; fill-opacity: 0.5"/>
    <path d="M 158.125881 151.717138 
L 148.700801 147.088232 
L 145.00739 143.810904 
L 154.408808 148.420236 
z
" clip-path="url(#pf4469948c5)" style="fill: #103b10; fill-opacity: 0.5"/>
    <path d="M 161.845786 155.016553 
L 152.397011 150.368043 
L 148.700801 147.088232 
L 158.125881 151.717138 
z
" clip-path="url(#pf4469948c5)" style="fill: #103b10; fill-opacity: 0.5"/>
    <path d="M 165.568526 158.318482 
L 156.096023 153.650341 
L 152.397011 150.368043 
L 161.845786 155.016553 
z
" clip-path="url(#pf4469948c5)" style="fill: #103b10; fill-opacity: 0.5"/>
    <path d="M 169.294105 161.622929 
L 159.79784 156.935129 
L 156.096023 153.650341 
L 165.568526 158.318482 
z
" clip-path="url(#pf4469948c5)" style="fill: #103b10; fill-opacity: 0.5"/>
    <path d="M 148.977444 139.838455 
L 139.568775 135.257689 
L 135.865815 131.973304 
L 145.250692 136.534406 
z
" clip-path="url(#pf4469948c5)" style="fill: #103b10; fill-opacity: 0.5"/>
    <path d="M 152.707045 143.145031 
L 143.274551 138.544572 
L 139.568775 135.257689 
L 148.977444 139.838455 
z
" clip-path="url(#pf4469948c5)" style="fill: #103b10; fill-opacity: 0.5"/>
    <path d="M 156.439499 146.454136 
L 146.983146 141.833956 
L 143.274551 138.544572 
L 152.707045 143.145031 
z
" clip-path="url(#pf4469948c5)" style="fill: #103b10; fill-opacity: 0.5"/>
    <path d="M 160.174809 149.765773 
L 150.694564 145.125842 
L 146.983146 141.833956 
L 156.439499 146.454136 
z
" clip-path="url(#pf4469948c5)" style="fill: #103b10; fill-opacity: 0.5"/>
    <path d="M 163.912979 153.079945 
L 154.408808 148.420236 
L 150.694564 145.125842 
L 160.174809 149.765773 
z
" clip-path="url(#pf4469948c5)" style="fill: #103b10; fill-opacity: 0.5"/>
    <path d="M 167.654011 156.396655 
L 158.125881 151.717138 
L 154.408808 148.420236 
L 163.912979 153.079945 
z
" clip-path="url(#pf4469948c5)" style="fill: #103b10; fill-opacity: 0.5"/>
    <path d="M 171.39791 159.715906 
L 161.845786 155.016553 
L 158.125881 151.717138 
L 167.654011 156.396655 
z
" clip-path="url(#pf4469948c5)" style="fill: #103b10; fill-opacity: 0.5"/>
    <path d="M 175.144678 163.037701 
L 165.568526 158.318482 
L 161.845786 155.016553 
L 171.39791 159.715906 
z
" clip-path="url(#pf4469948c5)" style="fill: #103b10; fill-opacity: 0.5"/>
    <path d="M 178.894318 166.362043 
L 169.294105 161.622929 
L 165.568526 158.318482 
L 175.144678 163.037701 
z
" clip-path="url(#pf4469948c5)" style="fill: #103b10; fill-opacity: 0.5"/>
    <path d="M 158.48935 144.469484 
L 148.977444 139.838455 
L 145.250692 136.534406 
L 154.738507 141.145536 
z
" clip-path="url(#pf4469948c5)" style="fill: #103b10; fill-opacity: 0.5"/>
    <path d="M 162.243078 147.795988 
L 152.707045 143.145031 
L 148.977444 139.838455 
L 158.48935 144.469484 
z
" clip-path="url(#pf4469948c5)" style="fill: #103b10; fill-opacity: 0.5"/>
    <path d="M 165.999692 151.12505 
L 156.439499 146.454136 
L 152.707045 143.145031 
L 162.243078 147.795988 
z
" clip-path="url(#pf4469948c5)" style="fill: #103b10; fill-opacity: 0.5"/>
    <path d="M 169.759197 154.456674 
L 160.174809 149.765773 
L 156.439499 146.454136 
L 165.999692 151.12505 
z
" clip-path="url(#pf4469948c5)" style="fill: #103b10; fill-opacity: 0.5"/>
    <path d="M 173.521596 157.790862 
L 163.912979 153.079945 
L 160.174809 149.765773 
L 169.759197 154.456674 
z
" clip-path="url(#pf4469948c5)" style="fill: #103b10; fill-opacity: 0.5"/>
    <path d="M 177.286891 161.127617 
L 167.654011 156.396655 
L 163.912979 153.079945 
L 173.521596 157.790862 
z
" clip-path="url(#pf4469948c5)" style="fill: #103b10; fill-opacity: 0.5"/>
    <path d="M 181.055088 164.466943 
L 171.39791 159.715906 
L 167.654011 156.396655 
L 177.286891 161.127617 
z
" clip-path="url(#pf4469948c5)" style="fill: #103b10; fill-opacity: 0.5"/>
    <path d="M 184.826188 167.808842 
L 175.144678 163.037701 
L 171.39791 159.715906 
L 181.055088 164.466943 
z
" clip-path="url(#pf4469948c5)" style="fill: #103b10; fill-opacity: 0.5"/>
    <path d="M 188.600195 171.153318 
L 178.894318 166.362043 
L 175.144678 163.037701 
L 184.826188 167.808842 
z
" clip-path="url(#pf4469948c5)" style="fill: #103b10; fill-opacity: 0.5"/>
    <path d="M 168.106203 149.151608 
L 158.48935 144.469484 
L 154.738507 141.145536 
L 164.330961 145.807522 
z
" clip-path="url(#pf4469948c5)" style="fill: #103b10; fill-opacity: 0.5"/>
    <path d="M 171.884363 152.49828 
L 162.243078 147.795988 
L 158.48935 144.469484 
L 168.106203 149.151608 
z
" clip-path="url(#pf4469948c5)" style="fill: #103b10; fill-opacity: 0.5"/>
    <path d="M 175.665446 155.847539 
L 165.999692 151.12505 
L 162.243078 147.795988 
L 171.884363 152.49828 
z
" clip-path="url(#pf4469948c5)" style="fill: #103b10; fill-opacity: 0.5"/>
    <path d="M 179.449453 159.19939 
L 169.759197 154.456674 
L 165.999692 151.12505 
L 175.665446 155.847539 
z
" clip-path="url(#pf4469948c5)" style="fill: #103b10; fill-opacity: 0.5"/>
    <path d="M 183.23639 162.553835 
L 173.521596 157.790862 
L 169.759197 154.456674 
L 179.449453 159.19939 
z
" clip-path="url(#pf4469948c5)" style="fill: #103b10; fill-opacity: 0.5"/>
    <path d="M 187.026258 165.910878 
L 177.286891 161.127617 
L 173.521596 157.790862 
L 183.23639 162.553835 
z
" clip-path="url(#pf4469948c5)" style="fill: #103b10; fill-opacity: 0.5"/>
    <path d="M 190.819062 169.27052 
L 181.055088 164.466943 
L 177.286891 161.127617 
L 187.026258 165.910878 
z
" clip-path="url(#pf4469948c5)" style="fill: #103b10; fill-opacity: 0.5"/>
    <path d="M 194.614805 172.632767 
L 184.826188 167.808842 
L 181.055088 164.466943 
L 190.819062 169.27052 
z
" clip-path="url(#pf4469948c5)" style="fill: #103b10; fill-opacity: 0.5"/>
    <path d="M 198.413491 175.997619 
L 188.600195 171.153318 
L 184.826188 167.808842 
L 194.614805 172.632767 
z
" clip-path="url(#pf4469948c5)" style="fill: #103b10; fill-opacity: 0.5"/>
    <path d="M 177.829748 153.885677 
L 168.106203 149.151608 
L 164.330961 145.807522 
L 174.029796 150.521209 
z
" clip-path="url(#pf4469948c5)" style="fill: #103b10; fill-opacity: 0.5"/>
    <path d="M 181.632654 157.25276 
L 171.884363 152.49828 
L 168.106203 149.151608 
L 177.829748 153.885677 
z
" clip-path="url(#pf4469948c5)" style="fill: #103b10; fill-opacity: 0.5"/>
    <path d="M 185.438518 160.622462 
L 175.665446 155.847539 
L 171.884363 152.49828 
L 181.632654 157.25276 
z
" clip-path="url(#pf4469948c5)" style="fill: #103b10; fill-opacity: 0.5"/>
    <path d="M 189.247342 163.994785 
L 179.449453 159.19939 
L 175.665446 155.847539 
L 185.438518 160.622462 
z
" clip-path="url(#pf4469948c5)" style="fill: #103b10; fill-opacity: 0.5"/>
    <path d="M 193.05913 167.369733 
L 183.23639 162.553835 
L 179.449453 159.19939 
L 189.247342 163.994785 
z
" clip-path="url(#pf4469948c5)" style="fill: #103b10; fill-opacity: 0.5"/>
    <path d="M 196.873887 170.747309 
L 187.026258 165.910878 
L 183.23639 162.553835 
L 193.05913 167.369733 
z
" clip-path="url(#pf4469948c5)" style="fill: #103b10; fill-opacity: 0.5"/>
    <path d="M 200.691614 174.127515 
L 190.819062 169.27052 
L 187.026258 165.910878 
L 196.873887 170.747309 
z
" clip-path="url(#pf4469948c5)" style="fill: #103b10; fill-opacity: 0.5"/>
    <path d="M 204.512317 177.510355 
L 194.614805 172.632767 
L 190.819062 169.27052 
L 200.691614 174.127515 
z
" clip-path="url(#pf4469948c5)" style="fill: #103b10; fill-opacity: 0.5"/>
    <path d="M 208.335997 180.895832 
L 198.413491 175.997619 
L 194.614805 172.632767 
L 204.512317 177.510355 
z
" clip-path="url(#pf4469948c5)" style="fill: #103b10; fill-opacity: 0.5"/>
    <path d="M 187.661772 158.67256 
L 177.829748 153.885677 
L 174.029796 150.521209 
L 183.836792 155.287463 
z
" clip-path="url(#pf4469948c5)" style="fill: #103b10; fill-opacity: 0.5"/>
    <path d="M 191.489742 162.060304 
L 181.632654 157.25276 
L 177.829748 153.885677 
L 187.661772 158.67256 
z
" clip-path="url(#pf4469948c5)" style="fill: #103b10; fill-opacity: 0.5"/>
    <path d="M 195.320705 165.450697 
L 185.438518 160.622462 
L 181.632654 157.25276 
L 191.489742 162.060304 
z
" clip-path="url(#pf4469948c5)" style="fill: #103b10; fill-opacity: 0.5"/>
    <path d="M 199.154666 168.843742 
L 189.247342 163.994785 
L 185.438518 160.622462 
L 195.320705 165.450697 
z
" clip-path="url(#pf4469948c5)" style="fill: #103b10; fill-opacity: 0.5"/>
    <path d="M 202.991627 172.239442 
L 193.05913 167.369733 
L 189.247342 163.994785 
L 199.154666 168.843742 
z
" clip-path="url(#pf4469948c5)" style="fill: #103b10; fill-opacity: 0.5"/>
    <path d="M 206.831593 175.637801 
L 196.873887 170.747309 
L 193.05913 167.369733 
L 202.991627 172.239442 
z
" clip-path="url(#pf4469948c5)" style="fill: #103b10; fill-opacity: 0.5"/>
    <path d="M 210.674566 179.038822 
L 200.691614 174.127515 
L 196.873887 170.747309 
L 206.831593 175.637801 
z
" clip-path="url(#pf4469948c5)" style="fill: #103b10; fill-opacity: 0.5"/>
    <path d="M 214.52055 182.442508 
L 204.512317 177.510355 
L 200.691614 174.127515 
L 210.674566 179.038822 
z
" clip-path="url(#pf4469948c5)" style="fill: #103b10; fill-opacity: 0.5"/>
    <path d="M 218.369549 185.848862 
L 208.335997 180.895832 
L 204.512317 177.510355 
L 214.52055 182.442508 
z
" clip-path="url(#pf4469948c5)" style="fill: #103b10; fill-opacity: 0.5"/>
   </g>
   <g id="legend_1">
    <g id="patch_6">
     <path d="M 107.3175 57.71475 
L 274.6 57.71475 
Q 277.4 57.71475 277.4 54.91475 
L 277.4 35.765375 
Q 277.4 32.965375 274.6 32.965375 
L 107.3175 32.965375 
Q 104.5175 32.965375 104.5175 35.765375 
L 104.5175 54.91475 
Q 104.5175 57.71475 107.3175 57.71475 
z
" style="fill: #ffffff; opacity: 0.8; stroke: #cccccc; stroke-linejoin: miter"/>
    </g>
    <g id="Path3DCollection_2">
     <g>
      <use xlink:href="#me97b0bd255" x="124.1175" y="45.528188" style="fill: #ff0000; stroke: #ff0000"/>
     </g>
    </g>
    <g id="text_18">
     <!-- Intersection Point -->
     <g transform="translate(149.3175 49.203188) scale(0.14 -0.14)">
      <use xlink:href="#DejaVuSans-49"/>
      <use xlink:href="#DejaVuSans-6e" x="29.492188"/>
      <use xlink:href="#DejaVuSans-74" x="92.871094"/>
      <use xlink:href="#DejaVuSans-65" x="132.080078"/>
      <use xlink:href="#DejaVuSans-72" x="193.603516"/>
      <use xlink:href="#DejaVuSans-73" x="234.716797"/>
      <use xlink:href="#DejaVuSans-65" x="286.816406"/>
      <use xlink:href="#DejaVuSans-63" x="348.339844"/>
      <use xlink:href="#DejaVuSans-74" x="403.320312"/>
      <use xlink:href="#DejaVuSans-69" x="442.529297"/>
      <use xlink:href="#DejaVuSans-6f" x="470.3125"/>
      <use xlink:href="#DejaVuSans-6e" x="531.494141"/>
      <use xlink:href="#DejaVuSans-20" x="594.873047"/>
      <use xlink:href="#DejaVuSans-50" x="626.660156"/>
      <use xlink:href="#DejaVuSans-6f" x="683.337891"/>
      <use xlink:href="#DejaVuSans-69" x="744.519531"/>
      <use xlink:href="#DejaVuSans-6e" x="772.302734"/>
      <use xlink:href="#DejaVuSans-74" x="835.681641"/>
     </g>
    </g>
   </g>
   <g id="Poly3DCollection_3">
    <path d="M 141.489886 108.757006 
L 145.330677 113.432279 
L 150.331994 107.155164 
L 146.478603 102.534959 
z
" clip-path="url(#pf4469948c5)" style="fill: #ed760d; fill-opacity: 0.5"/>
    <path d="M 136.459578 115.030925 
L 140.287424 119.762028 
L 145.330677 113.432279 
L 141.489886 108.757006 
z
" clip-path="url(#pf4469948c5)" style="fill: #ed760d; fill-opacity: 0.5"/>
    <path d="M 145.330677 113.432279 
L 149.215896 118.161633 
L 154.229771 111.828588 
L 150.331994 107.155164 
z
" clip-path="url(#pf4469948c5)" style="fill: #ed760d; fill-opacity: 0.5"/>
    <path d="M 131.387157 121.357368 
L 135.201705 126.145076 
L 140.287424 119.762028 
L 136.459578 115.030925 
z
" clip-path="url(#pf4469948c5)" style="fill: #ed760d; fill-opacity: 0.5"/>
    <path d="M 140.287424 119.762028 
L 144.159734 124.548089 
L 149.215896 118.161633 
L 145.330677 113.432279 
z
" clip-path="url(#pf4469948c5)" style="fill: #ed760d; fill-opacity: 0.5"/>
    <path d="M 149.215896 118.161633 
L 153.146318 122.946012 
L 158.172708 116.556158 
L 154.229771 111.828588 
z
" clip-path="url(#pf4469948c5)" style="fill: #ed760d; fill-opacity: 0.5"/>
    <path d="M 126.272093 127.736997 
L 130.072981 132.582099 
L 135.201705 126.145076 
L 131.387157 121.357368 
z
" clip-path="url(#pf4469948c5)" style="fill: #ed760d; fill-opacity: 0.5"/>
    <path d="M 135.201705 126.145076 
L 139.06075 130.988635 
L 144.159734 124.548089 
L 140.287424 119.762028 
z
" clip-path="url(#pf4469948c5)" style="fill: #ed760d; fill-opacity: 0.5"/>
    <path d="M 144.159734 124.548089 
L 148.077289 129.390071 
L 153.146318 122.946012 
L 149.215896 118.161633 
z
" clip-path="url(#pf4469948c5)" style="fill: #ed760d; fill-opacity: 0.5"/>
    <path d="M 121.113845 134.170486 
L 124.900705 139.073783 
L 130.072981 132.582099 
L 126.272093 127.736997 
z
" clip-path="url(#pf4469948c5)" style="fill: #ed760d; fill-opacity: 0.5"/>
    <path d="M 153.146318 122.946012 
L 157.122737 127.786382 
L 162.161593 121.33882 
L 158.172708 116.556158 
z
" clip-path="url(#pf4469948c5)" style="fill: #ed760d; fill-opacity: 0.5"/>
    <path d="M 130.072981 132.582099 
L 133.918396 137.483961 
L 139.06075 130.988635 
L 135.201705 126.145076 
z
" clip-path="url(#pf4469948c5)" style="fill: #ed760d; fill-opacity: 0.5"/>
    <path d="M 139.06075 130.988635 
L 142.965077 135.889028 
L 148.077289 129.390071 
L 144.159734 124.548089 
z
" clip-path="url(#pf4469948c5)" style="fill: #ed760d; fill-opacity: 0.5"/>
    <path d="M 115.911864 140.65852 
L 119.68432 145.62083 
L 124.900705 139.073783 
L 121.113845 134.170486 
z
" clip-path="url(#pf4469948c5)" style="fill: #ed760d; fill-opacity: 0.5"/>
    <path d="M 148.077289 129.390071 
L 152.040886 134.288959 
L 157.122737 127.786382 
L 153.146318 122.946012 
z
" clip-path="url(#pf4469948c5)" style="fill: #ed760d; fill-opacity: 0.5"/>
    <path d="M 124.900705 139.073783 
L 128.732118 144.034769 
L 133.918396 137.483961 
L 130.072981 132.582099 
z
" clip-path="url(#pf4469948c5)" style="fill: #ed760d; fill-opacity: 0.5"/>
    <path d="M 157.122737 127.786382 
L 161.145966 132.68373 
L 166.197234 126.177542 
L 162.161593 121.33882 
z
" clip-path="url(#pf4469948c5)" style="fill: #ed760d; fill-opacity: 0.5"/>
    <path d="M 133.918396 137.483961 
L 137.809126 142.443587 
L 142.965077 135.889028 
L 139.06075 130.988635 
z
" clip-path="url(#pf4469948c5)" style="fill: #ed760d; fill-opacity: 0.5"/>
    <path d="M 110.665592 147.201795 
L 114.423259 152.223948 
L 119.68432 145.62083 
L 115.911864 140.65852 
z
" clip-path="url(#pf4469948c5)" style="fill: #ed760d; fill-opacity: 0.5"/>
    <path d="M 142.965077 135.889028 
L 146.915487 140.84726 
L 152.040886 134.288959 
L 148.077289 129.390071 
z
" clip-path="url(#pf4469948c5)" style="fill: #ed760d; fill-opacity: 0.5"/>
    <path d="M 119.68432 145.62083 
L 123.501349 150.641772 
L 128.732118 144.034769 
L 124.900705 139.073783 
z
" clip-path="url(#pf4469948c5)" style="fill: #ed760d; fill-opacity: 0.5"/>
    <path d="M 152.040886 134.288959 
L 156.051342 139.245763 
L 161.145966 132.68373 
L 157.122737 127.786382 
z
" clip-path="url(#pf4469948c5)" style="fill: #ed760d; fill-opacity: 0.5"/>
    <path d="M 128.732118 144.034769 
L 132.608874 149.054465 
L 137.809126 142.443587 
L 133.918396 137.483961 
z
" clip-path="url(#pf4469948c5)" style="fill: #ed760d; fill-opacity: 0.5"/>
    <path d="M 161.145966 132.68373 
L 165.216835 137.63907 
L 170.280457 131.073316 
L 166.197234 126.177542 
z
" clip-path="url(#pf4469948c5)" style="fill: #ed760d; fill-opacity: 0.5"/>
    <path d="M 105.37446 153.80102 
L 109.116945 158.883863 
L 114.423259 152.223948 
L 110.665592 147.201795 
z
" clip-path="url(#pf4469948c5)" style="fill: #ed760d; fill-opacity: 0.5"/>
    <path d="M 137.809126 142.443587 
L 141.745976 147.462004 
L 146.915487 140.84726 
L 142.965077 135.889028 
z
" clip-path="url(#pf4469948c5)" style="fill: #ed760d; fill-opacity: 0.5"/>
    <path d="M 114.423259 152.223948 
L 118.225516 157.305697 
L 123.501349 150.641772 
L 119.68432 145.62083 
z
" clip-path="url(#pf4469948c5)" style="fill: #ed760d; fill-opacity: 0.5"/>
    <path d="M 146.915487 140.84726 
L 150.9128 145.864363 
L 156.051342 139.245763 
L 152.040886 134.288959 
z
" clip-path="url(#pf4469948c5)" style="fill: #ed760d; fill-opacity: 0.5"/>
    <path d="M 123.501349 150.641772 
L 127.363747 155.722391 
L 132.608874 149.054465 
L 128.732118 144.034769 
z
" clip-path="url(#pf4469948c5)" style="fill: #ed760d; fill-opacity: 0.5"/>
    <path d="M 156.051342 139.245763 
L 160.109491 144.261516 
L 165.216835 137.63907 
L 161.145966 132.68373 
z
" clip-path="url(#pf4469948c5)" style="fill: #ed760d; fill-opacity: 0.5"/>
    <path d="M 100.03789 160.456915 
L 103.764792 165.60131 
L 109.116945 158.883863 
L 105.37446 153.80102 
z
" clip-path="url(#pf4469948c5)" style="fill: #ed760d; fill-opacity: 0.5"/>
    <path d="M 132.608874 149.054465 
L 136.531783 154.133922 
L 141.745976 147.462004 
L 137.809126 142.443587 
z
" clip-path="url(#pf4469948c5)" style="fill: #ed760d; fill-opacity: 0.5"/>
    <path d="M 165.216835 137.63907 
L 169.336196 142.653438 
L 174.412111 136.027157 
L 170.280457 131.073316 
z
" clip-path="url(#pf4469948c5)" style="fill: #ed760d; fill-opacity: 0.5"/>
    <path d="M 109.116945 158.883863 
L 112.904032 164.027282 
L 118.225516 157.305697 
L 114.423259 152.223948 
z
" clip-path="url(#pf4469948c5)" style="fill: #ed760d; fill-opacity: 0.5"/>
    <path d="M 141.745976 147.462004 
L 145.729772 152.540263 
L 150.9128 145.864363 
L 146.915487 140.84726 
z
" clip-path="url(#pf4469948c5)" style="fill: #ed760d; fill-opacity: 0.5"/>
    <path d="M 118.225516 157.305697 
L 122.073161 162.448107 
L 127.363747 155.722391 
L 123.501349 150.641772 
z
" clip-path="url(#pf4469948c5)" style="fill: #ed760d; fill-opacity: 0.5"/>
    <path d="M 150.9128 145.864363 
L 154.957858 150.941389 
L 160.109491 144.261516 
L 156.051342 139.245763 
z
" clip-path="url(#pf4469948c5)" style="fill: #ed760d; fill-opacity: 0.5"/>
    <path d="M 127.363747 155.722391 
L 131.272326 160.863759 
L 136.531783 154.133922 
L 132.608874 149.054465 
z
" clip-path="url(#pf4469948c5)" style="fill: #ed760d; fill-opacity: 0.5"/>
    <path d="M 160.109491 144.261516 
L 164.216191 149.337275 
L 169.336196 142.653438 
L 165.216835 137.63907 
z
" clip-path="url(#pf4469948c5)" style="fill: #ed760d; fill-opacity: 0.5"/>
    <path d="M 103.764792 165.60131 
L 107.536303 170.80728 
L 112.904032 164.027282 
L 109.116945 158.883863 
z
" clip-path="url(#pf4469948c5)" style="fill: #ed760d; fill-opacity: 0.5"/>
    <path d="M 136.531783 154.133922 
L 140.501675 159.274212 
L 145.729772 152.540263 
L 141.745976 147.462004 
z
" clip-path="url(#pf4469948c5)" style="fill: #ed760d; fill-opacity: 0.5"/>
    <path d="M 169.336196 142.653438 
L 173.50492 147.727894 
L 178.59306 141.040104 
L 174.412111 136.027157 
z
" clip-path="url(#pf4469948c5)" style="fill: #ed760d; fill-opacity: 0.5"/>
    <path d="M 112.904032 164.027282 
L 116.736523 169.232367 
L 122.073161 162.448107 
L 118.225516 157.305697 
z
" clip-path="url(#pf4469948c5)" style="fill: #ed760d; fill-opacity: 0.5"/>
    <path d="M 145.729772 152.540263 
L 149.761357 157.679441 
L 154.957858 150.941389 
L 150.9128 145.864363 
z
" clip-path="url(#pf4469948c5)" style="fill: #ed760d; fill-opacity: 0.5"/>
    <path d="M 122.073161 162.448107 
L 125.967012 167.652272 
L 131.272326 160.863759 
L 127.363747 155.722391 
z
" clip-path="url(#pf4469948c5)" style="fill: #ed760d; fill-opacity: 0.5"/>
    <path d="M 154.957858 150.941389 
L 159.051521 156.079421 
L 164.216191 149.337275 
L 160.109491 144.261516 
z
" clip-path="url(#pf4469948c5)" style="fill: #ed760d; fill-opacity: 0.5"/>
    <path d="M 131.272326 160.863759 
L 135.227921 166.06697 
L 140.501675 159.274212 
L 136.531783 154.133922 
z
" clip-path="url(#pf4469948c5)" style="fill: #ed760d; fill-opacity: 0.5"/>
    <path d="M 164.216191 149.337275 
L 168.372318 154.474124 
L 173.50492 147.727894 
L 169.336196 142.653438 
z
" clip-path="url(#pf4469948c5)" style="fill: #ed760d; fill-opacity: 0.5"/>
    <path d="M 107.536303 170.80728 
L 111.35323 176.075939 
L 116.736523 169.232367 
L 112.904032 164.027282 
z
" clip-path="url(#pf4469948c5)" style="fill: #ed760d; fill-opacity: 0.5"/>
    <path d="M 140.501675 159.274212 
L 144.519398 164.476436 
L 149.761357 157.679441 
L 145.729772 152.540263 
z
" clip-path="url(#pf4469948c5)" style="fill: #ed760d; fill-opacity: 0.5"/>
    <path d="M 173.50492 147.727894 
L 177.7239 152.863526 
L 182.824194 146.113221 
L 178.59306 141.040104 
z
" clip-path="url(#pf4469948c5)" style="fill: #ed760d; fill-opacity: 0.5"/>
    <path d="M 116.736523 169.232367 
L 120.61524 174.500233 
L 125.967012 167.652272 
L 122.073161 162.448107 
z
" clip-path="url(#pf4469948c5)" style="fill: #ed760d; fill-opacity: 0.5"/>
    <path d="M 149.761357 157.679441 
L 153.841597 162.880642 
L 159.051521 156.079421 
L 154.957858 150.941389 
z
" clip-path="url(#pf4469948c5)" style="fill: #ed760d; fill-opacity: 0.5"/>
    <path d="M 125.967012 167.652272 
L 129.907907 172.919311 
L 135.227921 166.06697 
L 131.272326 160.863759 
z
" clip-path="url(#pf4469948c5)" style="fill: #ed760d; fill-opacity: 0.5"/>
    <path d="M 159.051521 156.079421 
L 163.194669 161.279563 
L 168.372318 154.474124 
L 164.216191 149.337275 
z
" clip-path="url(#pf4469948c5)" style="fill: #ed760d; fill-opacity: 0.5"/>
    <path d="M 135.227921 166.06697 
L 139.231383 171.333148 
L 144.519398 164.476436 
L 140.501675 159.274212 
z
" clip-path="url(#pf4469948c5)" style="fill: #ed760d; fill-opacity: 0.5"/>
    <path d="M 168.372318 154.474124 
L 172.578769 159.673173 
L 177.7239 152.863526 
L 173.50492 147.727894 
z
" clip-path="url(#pf4469948c5)" style="fill: #ed760d; fill-opacity: 0.5"/>
    <path d="M 111.35323 176.075939 
L 115.216396 181.408425 
L 120.61524 174.500233 
L 116.736523 169.232367 
z
" clip-path="url(#pf4469948c5)" style="fill: #ed760d; fill-opacity: 0.5"/>
    <path d="M 144.519398 164.476436 
L 148.585822 169.741718 
L 153.841597 162.880642 
L 149.761357 157.679441 
z
" clip-path="url(#pf4469948c5)" style="fill: #ed760d; fill-opacity: 0.5"/>
    <path d="M 120.61524 174.500233 
L 124.541024 179.832022 
L 129.907907 172.919311 
L 125.967012 167.652272 
z
" clip-path="url(#pf4469948c5)" style="fill: #ed760d; fill-opacity: 0.5"/>
    <path d="M 153.841597 162.880642 
L 157.971378 168.144994 
L 163.194669 161.279563 
L 159.051521 156.079421 
z
" clip-path="url(#pf4469948c5)" style="fill: #ed760d; fill-opacity: 0.5"/>
    <path d="M 129.907907 172.919311 
L 133.896703 178.25037 
L 139.231383 171.333148 
L 135.227921 166.06697 
z
" clip-path="url(#pf4469948c5)" style="fill: #ed760d; fill-opacity: 0.5"/>
    <path d="M 163.194669 161.279563 
L 167.388207 166.542949 
L 172.578769 159.673173 
L 168.372318 154.474124 
z
" clip-path="url(#pf4469948c5)" style="fill: #ed760d; fill-opacity: 0.5"/>
    <path d="M 139.231383 171.333148 
L 143.283589 176.663443 
L 148.585822 169.741718 
L 144.519398 164.476436 
z
" clip-path="url(#pf4469948c5)" style="fill: #ed760d; fill-opacity: 0.5"/>
    <path d="M 115.216396 181.408425 
L 119.126648 186.805905 
L 124.541024 179.832022 
L 120.61524 174.500233 
z
" clip-path="url(#pf4469948c5)" style="fill: #ed760d; fill-opacity: 0.5"/>
    <path d="M 148.585822 169.741718 
L 152.701838 175.071213 
L 157.971378 168.144994 
L 153.841597 162.880642 
z
" clip-path="url(#pf4469948c5)" style="fill: #ed760d; fill-opacity: 0.5"/>
    <path d="M 124.541024 179.832022 
L 128.514736 185.228906 
L 133.896703 178.25037 
L 129.907907 172.919311 
z
" clip-path="url(#pf4469948c5)" style="fill: #ed760d; fill-opacity: 0.5"/>
    <path d="M 157.971378 168.144994 
L 162.151608 173.473654 
L 167.388207 166.542949 
L 163.194669 161.279563 
z
" clip-path="url(#pf4469948c5)" style="fill: #ed760d; fill-opacity: 0.5"/>
    <path d="M 133.896703 178.25037 
L 137.934279 183.646624 
L 143.283589 176.663443 
L 139.231383 171.333148 
z
" clip-path="url(#pf4469948c5)" style="fill: #ed760d; fill-opacity: 0.5"/>
    <path d="M 143.283589 176.663443 
L 147.385433 182.059032 
L 152.701838 175.071213 
L 148.585822 169.741718 
z
" clip-path="url(#pf4469948c5)" style="fill: #ed760d; fill-opacity: 0.5"/>
    <path d="M 119.126648 186.805905 
L 123.084852 192.269575 
L 128.514736 185.228906 
L 124.541024 179.832022 
z
" clip-path="url(#pf4469948c5)" style="fill: #ed760d; fill-opacity: 0.5"/>
    <path d="M 152.701838 175.071213 
L 156.868359 180.466103 
L 162.151608 173.473654 
L 157.971378 168.144994 
z
" clip-path="url(#pf4469948c5)" style="fill: #ed760d; fill-opacity: 0.5"/>
    <path d="M 128.514736 185.228906 
L 132.537261 190.692084 
L 137.934279 183.646624 
L 133.896703 178.25037 
z
" clip-path="url(#pf4469948c5)" style="fill: #ed760d; fill-opacity: 0.5"/>
    <path d="M 137.934279 183.646624 
L 142.021534 189.109276 
L 147.385433 182.059032 
L 143.283589 176.663443 
z
" clip-path="url(#pf4469948c5)" style="fill: #ed760d; fill-opacity: 0.5"/>
    <path d="M 147.385433 182.059032 
L 151.537833 187.521123 
L 156.868359 180.466103 
L 152.701838 175.071213 
z
" clip-path="url(#pf4469948c5)" style="fill: #ed760d; fill-opacity: 0.5"/>
    <path d="M 123.084852 192.269575 
L 127.091895 197.80066 
L 132.537261 190.692084 
L 128.514736 185.228906 
z
" clip-path="url(#pf4469948c5)" style="fill: #ed760d; fill-opacity: 0.5"/>
    <path d="M 132.537261 190.692084 
L 136.609502 196.222785 
L 142.021534 189.109276 
L 137.934279 183.646624 
z
" clip-path="url(#pf4469948c5)" style="fill: #ed760d; fill-opacity: 0.5"/>
    <path d="M 142.021534 189.109276 
L 146.159392 194.639558 
L 151.537833 187.521123 
L 147.385433 182.059032 
z
" clip-path="url(#pf4469948c5)" style="fill: #ed760d; fill-opacity: 0.5"/>
    <path d="M 127.091895 197.80066 
L 131.148687 203.400415 
L 136.609502 196.222785 
L 132.537261 190.692084 
z
" clip-path="url(#pf4469948c5)" style="fill: #ed760d; fill-opacity: 0.5"/>
    <path d="M 136.609502 196.222785 
L 140.732388 201.822268 
L 146.159392 194.639558 
L 142.021534 189.109276 
z
" clip-path="url(#pf4469948c5)" style="fill: #ed760d; fill-opacity: 0.5"/>
    <path d="M 131.148687 203.400415 
L 135.25616 209.070127 
L 140.732388 201.822268 
L 136.609502 196.222785 
z
" clip-path="url(#pf4469948c5)" style="fill: #ed760d; fill-opacity: 0.5"/>
   </g>
  </g>
 </g>
 <defs>
  <clipPath id="pf4469948c5">
   <rect x="7.2" y="25.965375" width="277.2" height="277.2"/>
  </clipPath>
 </defs>
</svg>
